<mxfile host="app.diagrams.net" modified="2023-05-01T15:24:08.232Z" agent="Mozilla/5.0 (X11; Linux x86_64; rv:102.0) Gecko/20100101 Firefox/102.0" etag="lpKe21wIHPy6WRE8WTH3" version="21.2.1" type="device" pages="2">
  <diagram name="Page-1" id="86LGIHNQrir9bXh9BtMy">
    <mxGraphModel dx="3117" dy="2083" grid="1" gridSize="10" guides="1" tooltips="1" connect="1" arrows="1" fold="1" page="0" pageScale="1" pageWidth="850" pageHeight="1100" math="0" shadow="0">
      <root>
        <mxCell id="0" />
        <mxCell id="1" parent="0" />
        <mxCell id="hWC3U5BVMSghRzzayUws-40" style="edgeStyle=orthogonalEdgeStyle;rounded=0;orthogonalLoop=1;jettySize=auto;html=1;entryX=0.5;entryY=0;entryDx=0;entryDy=0;endArrow=none;endFill=0;exitX=-0.005;exitY=-0.386;exitDx=0;exitDy=0;exitPerimeter=0;" edge="1" parent="1" source="hWC3U5BVMSghRzzayUws-22" target="CtRNFP9WD__vj1TVYb57-21">
          <mxGeometry relative="1" as="geometry" />
        </mxCell>
        <mxCell id="L0IoAVmVPzkokYVJZ-Xs-1" value="User" style="swimlane;fontStyle=0;childLayout=stackLayout;horizontal=1;startSize=30;horizontalStack=0;resizeParent=1;resizeParentMax=0;resizeLast=0;collapsible=1;marginBottom=0;whiteSpace=wrap;html=1;fillColor=#b0e3e6;strokeColor=#0e8088;" parent="1" vertex="1">
          <mxGeometry x="-200" y="30" width="270" height="330" as="geometry" />
        </mxCell>
        <mxCell id="CtRNFP9WD__vj1TVYb57-6" value="- username: string" style="text;strokeColor=none;fillColor=none;align=left;verticalAlign=middle;spacingLeft=4;spacingRight=4;overflow=hidden;points=[[0,0.5],[1,0.5]];portConstraint=eastwest;rotatable=0;whiteSpace=wrap;html=1;" parent="L0IoAVmVPzkokYVJZ-Xs-1" vertex="1">
          <mxGeometry y="30" width="270" height="30" as="geometry" />
        </mxCell>
        <mxCell id="L0IoAVmVPzkokYVJZ-Xs-2" value="- name: string" style="text;strokeColor=none;fillColor=none;align=left;verticalAlign=middle;spacingLeft=4;spacingRight=4;overflow=hidden;points=[[0,0.5],[1,0.5]];portConstraint=eastwest;rotatable=0;whiteSpace=wrap;html=1;" parent="L0IoAVmVPzkokYVJZ-Xs-1" vertex="1">
          <mxGeometry y="60" width="270" height="30" as="geometry" />
        </mxCell>
        <mxCell id="L0IoAVmVPzkokYVJZ-Xs-3" value="- password: string" style="text;strokeColor=none;fillColor=none;align=left;verticalAlign=middle;spacingLeft=4;spacingRight=4;overflow=hidden;points=[[0,0.5],[1,0.5]];portConstraint=eastwest;rotatable=0;whiteSpace=wrap;html=1;" parent="L0IoAVmVPzkokYVJZ-Xs-1" vertex="1">
          <mxGeometry y="90" width="270" height="30" as="geometry" />
        </mxCell>
        <mxCell id="L0IoAVmVPzkokYVJZ-Xs-4" value="- paymentMethod: string" style="text;strokeColor=none;fillColor=none;align=left;verticalAlign=middle;spacingLeft=4;spacingRight=4;overflow=hidden;points=[[0,0.5],[1,0.5]];portConstraint=eastwest;rotatable=0;whiteSpace=wrap;html=1;" parent="L0IoAVmVPzkokYVJZ-Xs-1" vertex="1">
          <mxGeometry y="120" width="270" height="30" as="geometry" />
        </mxCell>
        <mxCell id="hWC3U5BVMSghRzzayUws-39" value="- settings:&amp;nbsp; dict" style="text;strokeColor=none;fillColor=none;align=left;verticalAlign=middle;spacingLeft=4;spacingRight=4;overflow=hidden;points=[[0,0.5],[1,0.5]];portConstraint=eastwest;rotatable=0;whiteSpace=wrap;html=1;" vertex="1" parent="L0IoAVmVPzkokYVJZ-Xs-1">
          <mxGeometry y="150" width="270" height="30" as="geometry" />
        </mxCell>
        <mxCell id="CtRNFP9WD__vj1TVYb57-1" value="- email: string" style="text;strokeColor=none;fillColor=none;align=left;verticalAlign=middle;spacingLeft=4;spacingRight=4;overflow=hidden;points=[[0,0.5],[1,0.5]];portConstraint=eastwest;rotatable=0;whiteSpace=wrap;html=1;" parent="L0IoAVmVPzkokYVJZ-Xs-1" vertex="1">
          <mxGeometry y="180" width="270" height="30" as="geometry" />
        </mxCell>
        <mxCell id="vZgcpLXMvWVoAEVgArBi-1" value="+ changeSettings(): None" style="text;strokeColor=none;fillColor=none;align=left;verticalAlign=middle;spacingLeft=4;spacingRight=4;overflow=hidden;points=[[0,0.5],[1,0.5]];portConstraint=eastwest;rotatable=0;whiteSpace=wrap;html=1;strokeWidth=1;perimeterSpacing=1;" parent="L0IoAVmVPzkokYVJZ-Xs-1" vertex="1">
          <mxGeometry y="210" width="270" height="30" as="geometry" />
        </mxCell>
        <mxCell id="vZgcpLXMvWVoAEVgArBi-2" value="&lt;div&gt;+ login(email: string, password: string): boolean&lt;/div&gt;" style="text;strokeColor=none;fillColor=none;align=left;verticalAlign=middle;spacingLeft=4;spacingRight=4;overflow=hidden;points=[[0,0.5],[1,0.5]];portConstraint=eastwest;rotatable=0;whiteSpace=wrap;html=1;strokeWidth=1;perimeterSpacing=1;" parent="L0IoAVmVPzkokYVJZ-Xs-1" vertex="1">
          <mxGeometry y="240" width="270" height="30" as="geometry" />
        </mxCell>
        <mxCell id="CtRNFP9WD__vj1TVYb57-3" value="+ logout: bool" style="text;strokeColor=none;fillColor=none;align=left;verticalAlign=middle;spacingLeft=4;spacingRight=4;overflow=hidden;points=[[0,0.5],[1,0.5]];portConstraint=eastwest;rotatable=0;whiteSpace=wrap;html=1;" parent="L0IoAVmVPzkokYVJZ-Xs-1" vertex="1">
          <mxGeometry y="270" width="270" height="30" as="geometry" />
        </mxCell>
        <mxCell id="CtRNFP9WD__vj1TVYb57-5" value="" style="endArrow=none;html=1;rounded=0;exitX=-0.007;exitY=0.959;exitDx=0;exitDy=0;exitPerimeter=0;entryX=0.996;entryY=-0.031;entryDx=0;entryDy=0;entryPerimeter=0;" parent="L0IoAVmVPzkokYVJZ-Xs-1" source="CtRNFP9WD__vj1TVYb57-1" edge="1" target="vZgcpLXMvWVoAEVgArBi-1">
          <mxGeometry width="50" height="50" relative="1" as="geometry">
            <mxPoint x="140" y="300" as="sourcePoint" />
            <mxPoint x="272" y="180" as="targetPoint" />
          </mxGeometry>
        </mxCell>
        <mxCell id="hWC3U5BVMSghRzzayUws-22" value="+ addPaymentMethod: None" style="text;strokeColor=none;fillColor=none;align=left;verticalAlign=middle;spacingLeft=4;spacingRight=4;overflow=hidden;points=[[0,0.5],[1,0.5]];portConstraint=eastwest;rotatable=0;whiteSpace=wrap;html=1;" vertex="1" parent="L0IoAVmVPzkokYVJZ-Xs-1">
          <mxGeometry y="300" width="270" height="30" as="geometry" />
        </mxCell>
        <mxCell id="hWC3U5BVMSghRzzayUws-41" style="edgeStyle=orthogonalEdgeStyle;rounded=0;orthogonalLoop=1;jettySize=auto;html=1;entryX=1;entryY=0.5;entryDx=0;entryDy=0;endArrow=none;endFill=0;" edge="1" parent="1" source="L0IoAVmVPzkokYVJZ-Xs-5" target="CtRNFP9WD__vj1TVYb57-1">
          <mxGeometry relative="1" as="geometry" />
        </mxCell>
        <mxCell id="hWC3U5BVMSghRzzayUws-45" style="edgeStyle=orthogonalEdgeStyle;rounded=0;orthogonalLoop=1;jettySize=auto;html=1;entryX=0.5;entryY=0;entryDx=0;entryDy=0;endArrow=none;endFill=0;" edge="1" parent="1" source="L0IoAVmVPzkokYVJZ-Xs-5" target="CtRNFP9WD__vj1TVYb57-11">
          <mxGeometry relative="1" as="geometry" />
        </mxCell>
        <mxCell id="L0IoAVmVPzkokYVJZ-Xs-5" value="Inventory" style="swimlane;fontStyle=0;childLayout=stackLayout;horizontal=1;startSize=30;horizontalStack=0;resizeParent=1;resizeParentMax=0;resizeLast=0;collapsible=1;marginBottom=0;whiteSpace=wrap;html=1;fillColor=#b0e3e6;strokeColor=#0e8088;" parent="1" vertex="1">
          <mxGeometry x="220" y="280" width="270" height="180" as="geometry" />
        </mxCell>
        <mxCell id="L0IoAVmVPzkokYVJZ-Xs-6" value="- username: string" style="text;strokeColor=none;fillColor=none;align=left;verticalAlign=middle;spacingLeft=4;spacingRight=4;overflow=hidden;points=[[0,0.5],[1,0.5]];portConstraint=eastwest;rotatable=0;whiteSpace=wrap;html=1;" parent="L0IoAVmVPzkokYVJZ-Xs-5" vertex="1">
          <mxGeometry y="30" width="270" height="30" as="geometry" />
        </mxCell>
        <mxCell id="L0IoAVmVPzkokYVJZ-Xs-7" value="- items:list of Item" style="text;strokeColor=none;fillColor=none;align=left;verticalAlign=middle;spacingLeft=4;spacingRight=4;overflow=hidden;points=[[0,0.5],[1,0.5]];portConstraint=eastwest;rotatable=0;whiteSpace=wrap;html=1;" parent="L0IoAVmVPzkokYVJZ-Xs-5" vertex="1">
          <mxGeometry y="60" width="270" height="30" as="geometry" />
        </mxCell>
        <mxCell id="L0IoAVmVPzkokYVJZ-Xs-8" value="&lt;div&gt;+ getItem: integer&lt;/div&gt;" style="text;strokeColor=none;fillColor=none;align=left;verticalAlign=middle;spacingLeft=4;spacingRight=4;overflow=hidden;points=[[0,0.5],[1,0.5]];portConstraint=eastwest;rotatable=0;whiteSpace=wrap;html=1;" parent="L0IoAVmVPzkokYVJZ-Xs-5" vertex="1">
          <mxGeometry y="90" width="270" height="30" as="geometry" />
        </mxCell>
        <mxCell id="CtRNFP9WD__vj1TVYb57-7" value="" style="endArrow=none;html=1;rounded=0;entryX=1;entryY=0;entryDx=0;entryDy=0;entryPerimeter=0;exitX=-0.001;exitY=-0.002;exitDx=0;exitDy=0;exitPerimeter=0;" parent="L0IoAVmVPzkokYVJZ-Xs-5" source="L0IoAVmVPzkokYVJZ-Xs-8" target="L0IoAVmVPzkokYVJZ-Xs-8" edge="1">
          <mxGeometry width="50" height="50" relative="1" as="geometry">
            <mxPoint x="-80" y="200" as="sourcePoint" />
            <mxPoint x="-30" y="150" as="targetPoint" />
          </mxGeometry>
        </mxCell>
        <mxCell id="CtRNFP9WD__vj1TVYb57-8" value="+ addItem: bool" style="text;strokeColor=none;fillColor=none;align=left;verticalAlign=middle;spacingLeft=4;spacingRight=4;overflow=hidden;points=[[0,0.5],[1,0.5]];portConstraint=eastwest;rotatable=0;whiteSpace=wrap;html=1;" parent="L0IoAVmVPzkokYVJZ-Xs-5" vertex="1">
          <mxGeometry y="120" width="270" height="30" as="geometry" />
        </mxCell>
        <mxCell id="CtRNFP9WD__vj1TVYb57-9" value="+ removeItem: bool" style="text;strokeColor=none;fillColor=none;align=left;verticalAlign=middle;spacingLeft=4;spacingRight=4;overflow=hidden;points=[[0,0.5],[1,0.5]];portConstraint=eastwest;rotatable=0;whiteSpace=wrap;html=1;" parent="L0IoAVmVPzkokYVJZ-Xs-5" vertex="1">
          <mxGeometry y="150" width="270" height="30" as="geometry" />
        </mxCell>
        <mxCell id="CtRNFP9WD__vj1TVYb57-11" value="Item" style="swimlane;fontStyle=0;childLayout=stackLayout;horizontal=1;startSize=30;horizontalStack=0;resizeParent=1;resizeParentMax=0;resizeLast=0;collapsible=1;marginBottom=0;whiteSpace=wrap;html=1;fillColor=#b0e3e6;strokeColor=#0e8088;" parent="1" vertex="1">
          <mxGeometry x="220" y="550" width="270" height="270" as="geometry" />
        </mxCell>
        <mxCell id="CtRNFP9WD__vj1TVYb57-18" value="- id: integer" style="text;strokeColor=none;fillColor=none;align=left;verticalAlign=middle;spacingLeft=4;spacingRight=4;overflow=hidden;points=[[0,0.5],[1,0.5]];portConstraint=eastwest;rotatable=0;whiteSpace=wrap;html=1;" parent="CtRNFP9WD__vj1TVYb57-11" vertex="1">
          <mxGeometry y="30" width="270" height="30" as="geometry" />
        </mxCell>
        <mxCell id="CtRNFP9WD__vj1TVYb57-12" value="- user_id: integer" style="text;strokeColor=none;fillColor=none;align=left;verticalAlign=middle;spacingLeft=4;spacingRight=4;overflow=hidden;points=[[0,0.5],[1,0.5]];portConstraint=eastwest;rotatable=0;whiteSpace=wrap;html=1;" parent="CtRNFP9WD__vj1TVYb57-11" vertex="1">
          <mxGeometry y="60" width="270" height="30" as="geometry" />
        </mxCell>
        <mxCell id="CtRNFP9WD__vj1TVYb57-19" value="- price: integer" style="text;strokeColor=none;fillColor=none;align=left;verticalAlign=middle;spacingLeft=4;spacingRight=4;overflow=hidden;points=[[0,0.5],[1,0.5]];portConstraint=eastwest;rotatable=0;whiteSpace=wrap;html=1;" parent="CtRNFP9WD__vj1TVYb57-11" vertex="1">
          <mxGeometry y="90" width="270" height="30" as="geometry" />
        </mxCell>
        <mxCell id="CtRNFP9WD__vj1TVYb57-50" value="- discount: bool" style="text;strokeColor=none;fillColor=none;align=left;verticalAlign=middle;spacingLeft=4;spacingRight=4;overflow=hidden;points=[[0,0.5],[1,0.5]];portConstraint=eastwest;rotatable=0;whiteSpace=wrap;html=1;" parent="CtRNFP9WD__vj1TVYb57-11" vertex="1">
          <mxGeometry y="120" width="270" height="30" as="geometry" />
        </mxCell>
        <mxCell id="CtRNFP9WD__vj1TVYb57-20" value="- tier: integer" style="text;strokeColor=none;fillColor=none;align=left;verticalAlign=middle;spacingLeft=4;spacingRight=4;overflow=hidden;points=[[0,0.5],[1,0.5]];portConstraint=eastwest;rotatable=0;whiteSpace=wrap;html=1;" parent="CtRNFP9WD__vj1TVYb57-11" vertex="1">
          <mxGeometry y="150" width="270" height="30" as="geometry" />
        </mxCell>
        <mxCell id="CtRNFP9WD__vj1TVYb57-15" value="" style="endArrow=none;html=1;rounded=0;entryX=1;entryY=0;entryDx=0;entryDy=0;entryPerimeter=0;exitX=-0.001;exitY=-0.002;exitDx=0;exitDy=0;exitPerimeter=0;" parent="CtRNFP9WD__vj1TVYb57-11" source="CtRNFP9WD__vj1TVYb57-14" target="CtRNFP9WD__vj1TVYb57-14" edge="1">
          <mxGeometry width="50" height="50" relative="1" as="geometry">
            <mxPoint x="-80" y="200" as="sourcePoint" />
            <mxPoint x="-30" y="150" as="targetPoint" />
          </mxGeometry>
        </mxCell>
        <mxCell id="CtRNFP9WD__vj1TVYb57-14" value="+ equipItem: bool" style="text;strokeColor=none;fillColor=none;align=left;verticalAlign=middle;spacingLeft=4;spacingRight=4;overflow=hidden;points=[[0,0.5],[1,0.5]];portConstraint=eastwest;rotatable=0;whiteSpace=wrap;html=1;" parent="CtRNFP9WD__vj1TVYb57-11" vertex="1">
          <mxGeometry y="180" width="270" height="30" as="geometry" />
        </mxCell>
        <mxCell id="CtRNFP9WD__vj1TVYb57-16" value="+ buyItem: bool" style="text;strokeColor=none;fillColor=none;align=left;verticalAlign=middle;spacingLeft=4;spacingRight=4;overflow=hidden;points=[[0,0.5],[1,0.5]];portConstraint=eastwest;rotatable=0;whiteSpace=wrap;html=1;" parent="CtRNFP9WD__vj1TVYb57-11" vertex="1">
          <mxGeometry y="210" width="270" height="30" as="geometry" />
        </mxCell>
        <mxCell id="CtRNFP9WD__vj1TVYb57-17" value="+ sell_Item: bool" style="text;strokeColor=none;fillColor=none;align=left;verticalAlign=middle;spacingLeft=4;spacingRight=4;overflow=hidden;points=[[0,0.5],[1,0.5]];portConstraint=eastwest;rotatable=0;whiteSpace=wrap;html=1;" parent="CtRNFP9WD__vj1TVYb57-11" vertex="1">
          <mxGeometry y="240" width="270" height="30" as="geometry" />
        </mxCell>
        <mxCell id="CtRNFP9WD__vj1TVYb57-21" value="Bank" style="swimlane;fontStyle=0;childLayout=stackLayout;horizontal=1;startSize=30;horizontalStack=0;resizeParent=1;resizeParentMax=0;resizeLast=0;collapsible=1;marginBottom=0;whiteSpace=wrap;html=1;fillColor=#b0e3e6;strokeColor=#0e8088;" parent="1" vertex="1">
          <mxGeometry x="-560" y="440" width="270" height="240" as="geometry" />
        </mxCell>
        <mxCell id="CtRNFP9WD__vj1TVYb57-22" value="- user_id: integer" style="text;strokeColor=none;fillColor=none;align=left;verticalAlign=middle;spacingLeft=4;spacingRight=4;overflow=hidden;points=[[0,0.5],[1,0.5]];portConstraint=eastwest;rotatable=0;whiteSpace=wrap;html=1;" parent="CtRNFP9WD__vj1TVYb57-21" vertex="1">
          <mxGeometry y="30" width="270" height="30" as="geometry" />
        </mxCell>
        <mxCell id="CtRNFP9WD__vj1TVYb57-23" value="&lt;div&gt;- lowcoin: integer&lt;/div&gt;" style="text;strokeColor=none;fillColor=none;align=left;verticalAlign=middle;spacingLeft=4;spacingRight=4;overflow=hidden;points=[[0,0.5],[1,0.5]];portConstraint=eastwest;rotatable=0;whiteSpace=wrap;html=1;" parent="CtRNFP9WD__vj1TVYb57-21" vertex="1">
          <mxGeometry y="60" width="270" height="30" as="geometry" />
        </mxCell>
        <mxCell id="CtRNFP9WD__vj1TVYb57-28" value="- highcoin: integer" style="text;strokeColor=none;fillColor=none;align=left;verticalAlign=middle;spacingLeft=4;spacingRight=4;overflow=hidden;points=[[0,0.5],[1,0.5]];portConstraint=eastwest;rotatable=0;whiteSpace=wrap;html=1;" parent="CtRNFP9WD__vj1TVYb57-21" vertex="1">
          <mxGeometry y="90" width="270" height="30" as="geometry" />
        </mxCell>
        <mxCell id="CtRNFP9WD__vj1TVYb57-24" value="&lt;div&gt;+ addLowcoins(ammount: integer): bool&amp;nbsp; &lt;br&gt;&lt;/div&gt;" style="text;strokeColor=none;fillColor=none;align=left;verticalAlign=middle;spacingLeft=4;spacingRight=4;overflow=hidden;points=[[0,0.5],[1,0.5]];portConstraint=eastwest;rotatable=0;whiteSpace=wrap;html=1;" parent="CtRNFP9WD__vj1TVYb57-21" vertex="1">
          <mxGeometry y="120" width="270" height="30" as="geometry" />
        </mxCell>
        <mxCell id="CtRNFP9WD__vj1TVYb57-25" value="" style="endArrow=none;html=1;rounded=0;entryX=1;entryY=0;entryDx=0;entryDy=0;entryPerimeter=0;exitX=-0.001;exitY=-0.002;exitDx=0;exitDy=0;exitPerimeter=0;" parent="CtRNFP9WD__vj1TVYb57-21" source="CtRNFP9WD__vj1TVYb57-24" target="CtRNFP9WD__vj1TVYb57-24" edge="1">
          <mxGeometry width="50" height="50" relative="1" as="geometry">
            <mxPoint x="-80" y="200" as="sourcePoint" />
            <mxPoint x="-30" y="150" as="targetPoint" />
          </mxGeometry>
        </mxCell>
        <mxCell id="CtRNFP9WD__vj1TVYb57-26" value="+ addHichcoins(ammount: integer): bool" style="text;strokeColor=none;fillColor=none;align=left;verticalAlign=middle;spacingLeft=4;spacingRight=4;overflow=hidden;points=[[0,0.5],[1,0.5]];portConstraint=eastwest;rotatable=0;whiteSpace=wrap;html=1;" parent="CtRNFP9WD__vj1TVYb57-21" vertex="1">
          <mxGeometry y="150" width="270" height="30" as="geometry" />
        </mxCell>
        <mxCell id="CtRNFP9WD__vj1TVYb57-27" value="+ cashHighcoins(ammount: integer): bool" style="text;strokeColor=none;fillColor=none;align=left;verticalAlign=middle;spacingLeft=4;spacingRight=4;overflow=hidden;points=[[0,0.5],[1,0.5]];portConstraint=eastwest;rotatable=0;whiteSpace=wrap;html=1;" parent="CtRNFP9WD__vj1TVYb57-21" vertex="1">
          <mxGeometry y="180" width="270" height="30" as="geometry" />
        </mxCell>
        <mxCell id="hWC3U5BVMSghRzzayUws-21" value="+ checkPaymentMethod: bool" style="text;strokeColor=none;fillColor=none;align=left;verticalAlign=middle;spacingLeft=4;spacingRight=4;overflow=hidden;points=[[0,0.5],[1,0.5]];portConstraint=eastwest;rotatable=0;whiteSpace=wrap;html=1;" vertex="1" parent="CtRNFP9WD__vj1TVYb57-21">
          <mxGeometry y="210" width="270" height="30" as="geometry" />
        </mxCell>
        <mxCell id="hWC3U5BVMSghRzzayUws-49" style="edgeStyle=orthogonalEdgeStyle;rounded=0;orthogonalLoop=1;jettySize=auto;html=1;endArrow=none;endFill=0;entryX=0.498;entryY=1.014;entryDx=0;entryDy=0;entryPerimeter=0;" edge="1" parent="1" source="CtRNFP9WD__vj1TVYb57-54" target="CtRNFP9WD__vj1TVYb57-49">
          <mxGeometry relative="1" as="geometry">
            <mxPoint x="-80" y="840" as="targetPoint" />
            <Array as="points">
              <mxPoint x="-75" y="875" />
            </Array>
          </mxGeometry>
        </mxCell>
        <mxCell id="CtRNFP9WD__vj1TVYb57-54" value="Pack" style="swimlane;fontStyle=0;childLayout=stackLayout;horizontal=1;startSize=30;horizontalStack=0;resizeParent=1;resizeParentMax=0;resizeLast=0;collapsible=1;marginBottom=0;whiteSpace=wrap;html=1;fillColor=#b0e3e6;strokeColor=#0e8088;" parent="1" vertex="1">
          <mxGeometry x="-210" y="920" width="270" height="270" as="geometry" />
        </mxCell>
        <mxCell id="CtRNFP9WD__vj1TVYb57-55" value="- id: integer" style="text;strokeColor=none;fillColor=none;align=left;verticalAlign=middle;spacingLeft=4;spacingRight=4;overflow=hidden;points=[[0,0.5],[1,0.5]];portConstraint=eastwest;rotatable=0;whiteSpace=wrap;html=1;" parent="CtRNFP9WD__vj1TVYb57-54" vertex="1">
          <mxGeometry y="30" width="270" height="30" as="geometry" />
        </mxCell>
        <mxCell id="CtRNFP9WD__vj1TVYb57-56" value="- items: integer" style="text;strokeColor=none;fillColor=none;align=left;verticalAlign=middle;spacingLeft=4;spacingRight=4;overflow=hidden;points=[[0,0.5],[1,0.5]];portConstraint=eastwest;rotatable=0;whiteSpace=wrap;html=1;" parent="CtRNFP9WD__vj1TVYb57-54" vertex="1">
          <mxGeometry y="60" width="270" height="30" as="geometry" />
        </mxCell>
        <mxCell id="CtRNFP9WD__vj1TVYb57-61" value="- lowcoin: integer" style="text;strokeColor=none;fillColor=none;align=left;verticalAlign=middle;spacingLeft=4;spacingRight=4;overflow=hidden;points=[[0,0.5],[1,0.5]];portConstraint=eastwest;rotatable=0;whiteSpace=wrap;html=1;" parent="CtRNFP9WD__vj1TVYb57-54" vertex="1">
          <mxGeometry y="90" width="270" height="30" as="geometry" />
        </mxCell>
        <mxCell id="CtRNFP9WD__vj1TVYb57-62" value="- highcoin: integer" style="text;strokeColor=none;fillColor=none;align=left;verticalAlign=middle;spacingLeft=4;spacingRight=4;overflow=hidden;points=[[0,0.5],[1,0.5]];portConstraint=eastwest;rotatable=0;whiteSpace=wrap;html=1;" parent="CtRNFP9WD__vj1TVYb57-54" vertex="1">
          <mxGeometry y="120" width="270" height="30" as="geometry" />
        </mxCell>
        <mxCell id="CtRNFP9WD__vj1TVYb57-65" value="- price: int" style="text;strokeColor=none;fillColor=none;align=left;verticalAlign=middle;spacingLeft=4;spacingRight=4;overflow=hidden;points=[[0,0.5],[1,0.5]];portConstraint=eastwest;rotatable=0;whiteSpace=wrap;html=1;" parent="CtRNFP9WD__vj1TVYb57-54" vertex="1">
          <mxGeometry y="150" width="270" height="30" as="geometry" />
        </mxCell>
        <mxCell id="CtRNFP9WD__vj1TVYb57-57" value="&lt;div&gt;+ getItem: integer&lt;/div&gt;" style="text;strokeColor=none;fillColor=none;align=left;verticalAlign=middle;spacingLeft=4;spacingRight=4;overflow=hidden;points=[[0,0.5],[1,0.5]];portConstraint=eastwest;rotatable=0;whiteSpace=wrap;html=1;" parent="CtRNFP9WD__vj1TVYb57-54" vertex="1">
          <mxGeometry y="180" width="270" height="30" as="geometry" />
        </mxCell>
        <mxCell id="CtRNFP9WD__vj1TVYb57-58" value="" style="endArrow=none;html=1;rounded=0;entryX=1;entryY=0;entryDx=0;entryDy=0;entryPerimeter=0;exitX=-0.001;exitY=-0.002;exitDx=0;exitDy=0;exitPerimeter=0;" parent="CtRNFP9WD__vj1TVYb57-54" source="CtRNFP9WD__vj1TVYb57-57" target="CtRNFP9WD__vj1TVYb57-57" edge="1">
          <mxGeometry width="50" height="50" relative="1" as="geometry">
            <mxPoint x="-80" y="200" as="sourcePoint" />
            <mxPoint x="-30" y="150" as="targetPoint" />
          </mxGeometry>
        </mxCell>
        <mxCell id="CtRNFP9WD__vj1TVYb57-59" value="+ gethighcoins: integer" style="text;strokeColor=none;fillColor=none;align=left;verticalAlign=middle;spacingLeft=4;spacingRight=4;overflow=hidden;points=[[0,0.5],[1,0.5]];portConstraint=eastwest;rotatable=0;whiteSpace=wrap;html=1;" parent="CtRNFP9WD__vj1TVYb57-54" vertex="1">
          <mxGeometry y="210" width="270" height="30" as="geometry" />
        </mxCell>
        <mxCell id="CtRNFP9WD__vj1TVYb57-60" value="+ getlowcoins: integer" style="text;strokeColor=none;fillColor=none;align=left;verticalAlign=middle;spacingLeft=4;spacingRight=4;overflow=hidden;points=[[0,0.5],[1,0.5]];portConstraint=eastwest;rotatable=0;whiteSpace=wrap;html=1;" parent="CtRNFP9WD__vj1TVYb57-54" vertex="1">
          <mxGeometry y="240" width="270" height="30" as="geometry" />
        </mxCell>
        <mxCell id="6WkABTExDSvjMns4Xdg7-1" value="&lt;div&gt;Game&lt;/div&gt;" style="swimlane;fontStyle=0;childLayout=stackLayout;horizontal=1;startSize=30;horizontalStack=0;resizeParent=1;resizeParentMax=0;resizeLast=0;collapsible=1;marginBottom=0;whiteSpace=wrap;html=1;fillColor=#b0e3e6;strokeColor=#0e8088;" parent="1" vertex="1">
          <mxGeometry x="210" y="-70" width="270" height="180" as="geometry" />
        </mxCell>
        <mxCell id="6WkABTExDSvjMns4Xdg7-2" value="- id: integer" style="text;strokeColor=none;fillColor=none;align=left;verticalAlign=middle;spacingLeft=4;spacingRight=4;overflow=hidden;points=[[0,0.5],[1,0.5]];portConstraint=eastwest;rotatable=0;whiteSpace=wrap;html=1;" parent="6WkABTExDSvjMns4Xdg7-1" vertex="1">
          <mxGeometry y="30" width="270" height="30" as="geometry" />
        </mxCell>
        <mxCell id="hWC3U5BVMSghRzzayUws-20" value="- tableSize: integer" style="text;strokeColor=none;fillColor=none;align=left;verticalAlign=middle;spacingLeft=4;spacingRight=4;overflow=hidden;points=[[0,0.5],[1,0.5]];portConstraint=eastwest;rotatable=0;whiteSpace=wrap;html=1;" vertex="1" parent="6WkABTExDSvjMns4Xdg7-1">
          <mxGeometry y="60" width="270" height="30" as="geometry" />
        </mxCell>
        <mxCell id="6WkABTExDSvjMns4Xdg7-5" value="- name: string" style="text;strokeColor=none;fillColor=none;align=left;verticalAlign=middle;spacingLeft=4;spacingRight=4;overflow=hidden;points=[[0,0.5],[1,0.5]];portConstraint=eastwest;rotatable=0;whiteSpace=wrap;html=1;" parent="6WkABTExDSvjMns4Xdg7-1" vertex="1">
          <mxGeometry y="90" width="270" height="30" as="geometry" />
        </mxCell>
        <mxCell id="6WkABTExDSvjMns4Xdg7-8" value="" style="endArrow=none;html=1;rounded=0;entryX=1;entryY=0;entryDx=0;entryDy=0;entryPerimeter=0;exitX=-0.001;exitY=-0.002;exitDx=0;exitDy=0;exitPerimeter=0;" parent="6WkABTExDSvjMns4Xdg7-1" source="6WkABTExDSvjMns4Xdg7-9" target="6WkABTExDSvjMns4Xdg7-9" edge="1">
          <mxGeometry width="50" height="50" relative="1" as="geometry">
            <mxPoint x="-80" y="200" as="sourcePoint" />
            <mxPoint x="-30" y="150" as="targetPoint" />
          </mxGeometry>
        </mxCell>
        <mxCell id="6WkABTExDSvjMns4Xdg7-9" value="+ selectMode: bool" style="text;strokeColor=none;fillColor=none;align=left;verticalAlign=middle;spacingLeft=4;spacingRight=4;overflow=hidden;points=[[0,0.5],[1,0.5]];portConstraint=eastwest;rotatable=0;whiteSpace=wrap;html=1;" parent="6WkABTExDSvjMns4Xdg7-1" vertex="1">
          <mxGeometry y="120" width="270" height="30" as="geometry" />
        </mxCell>
        <mxCell id="6WkABTExDSvjMns4Xdg7-26" value="+ sendInvitation(username: string): bool" style="text;strokeColor=none;fillColor=none;align=left;verticalAlign=middle;spacingLeft=4;spacingRight=4;overflow=hidden;points=[[0,0.5],[1,0.5]];portConstraint=eastwest;rotatable=0;whiteSpace=wrap;html=1;" parent="6WkABTExDSvjMns4Xdg7-1" vertex="1">
          <mxGeometry y="150" width="270" height="30" as="geometry" />
        </mxCell>
        <mxCell id="6WkABTExDSvjMns4Xdg7-13" value="Social" style="swimlane;fontStyle=0;childLayout=stackLayout;horizontal=1;startSize=30;horizontalStack=0;resizeParent=1;resizeParentMax=0;resizeLast=0;collapsible=1;marginBottom=0;whiteSpace=wrap;html=1;fillColor=#b0e3e6;strokeColor=#0e8088;" parent="1" vertex="1">
          <mxGeometry x="-610.0000000000001" y="-70" width="270" height="330" as="geometry" />
        </mxCell>
        <mxCell id="6WkABTExDSvjMns4Xdg7-14" value="- user_id: integer" style="text;strokeColor=none;fillColor=none;align=left;verticalAlign=middle;spacingLeft=4;spacingRight=4;overflow=hidden;points=[[0,0.5],[1,0.5]];portConstraint=eastwest;rotatable=0;whiteSpace=wrap;html=1;" parent="6WkABTExDSvjMns4Xdg7-13" vertex="1">
          <mxGeometry y="30" width="270" height="30" as="geometry" />
        </mxCell>
        <mxCell id="6WkABTExDSvjMns4Xdg7-15" value="- friends: list of friend" style="text;strokeColor=none;fillColor=none;align=left;verticalAlign=middle;spacingLeft=4;spacingRight=4;overflow=hidden;points=[[0,0.5],[1,0.5]];portConstraint=eastwest;rotatable=0;whiteSpace=wrap;html=1;" parent="6WkABTExDSvjMns4Xdg7-13" vertex="1">
          <mxGeometry y="60" width="270" height="30" as="geometry" />
        </mxCell>
        <mxCell id="6WkABTExDSvjMns4Xdg7-16" value="- inbox: list of messages" style="text;strokeColor=none;fillColor=none;align=left;verticalAlign=middle;spacingLeft=4;spacingRight=4;overflow=hidden;points=[[0,0.5],[1,0.5]];portConstraint=eastwest;rotatable=0;whiteSpace=wrap;html=1;" parent="6WkABTExDSvjMns4Xdg7-13" vertex="1">
          <mxGeometry y="90" width="270" height="30" as="geometry" />
        </mxCell>
        <mxCell id="6WkABTExDSvjMns4Xdg7-19" value="&lt;div&gt;+ sendFriendRequest(username: string): None&lt;br&gt;&lt;/div&gt;" style="text;strokeColor=none;fillColor=none;align=left;verticalAlign=middle;spacingLeft=4;spacingRight=4;overflow=hidden;points=[[0,0.5],[1,0.5]];portConstraint=eastwest;rotatable=0;whiteSpace=wrap;html=1;" parent="6WkABTExDSvjMns4Xdg7-13" vertex="1">
          <mxGeometry y="120" width="270" height="30" as="geometry" />
        </mxCell>
        <mxCell id="6WkABTExDSvjMns4Xdg7-20" value="" style="endArrow=none;html=1;rounded=0;entryX=1;entryY=0;entryDx=0;entryDy=0;entryPerimeter=0;exitX=-0.001;exitY=-0.002;exitDx=0;exitDy=0;exitPerimeter=0;" parent="6WkABTExDSvjMns4Xdg7-13" source="6WkABTExDSvjMns4Xdg7-19" target="6WkABTExDSvjMns4Xdg7-19" edge="1">
          <mxGeometry width="50" height="50" relative="1" as="geometry">
            <mxPoint x="-80" y="200" as="sourcePoint" />
            <mxPoint x="-30" y="150" as="targetPoint" />
          </mxGeometry>
        </mxCell>
        <mxCell id="hWC3U5BVMSghRzzayUws-16" value="+ seePlayerStats(username: string): None" style="text;strokeColor=none;fillColor=none;align=left;verticalAlign=middle;spacingLeft=4;spacingRight=4;overflow=hidden;points=[[0,0.5],[1,0.5]];portConstraint=eastwest;rotatable=0;whiteSpace=wrap;html=1;" vertex="1" parent="6WkABTExDSvjMns4Xdg7-13">
          <mxGeometry y="150" width="270" height="30" as="geometry" />
        </mxCell>
        <mxCell id="6WkABTExDSvjMns4Xdg7-21" value="+ respondFriendRequest(username: string): bool" style="text;strokeColor=none;fillColor=none;align=left;verticalAlign=middle;spacingLeft=4;spacingRight=4;overflow=hidden;points=[[0,0.5],[1,0.5]];portConstraint=eastwest;rotatable=0;whiteSpace=wrap;html=1;" parent="6WkABTExDSvjMns4Xdg7-13" vertex="1">
          <mxGeometry y="180" width="270" height="30" as="geometry" />
        </mxCell>
        <mxCell id="6WkABTExDSvjMns4Xdg7-22" value="+ removeFriend(username: string): bool" style="text;strokeColor=none;fillColor=none;align=left;verticalAlign=middle;spacingLeft=4;spacingRight=4;overflow=hidden;points=[[0,0.5],[1,0.5]];portConstraint=eastwest;rotatable=0;whiteSpace=wrap;html=1;" parent="6WkABTExDSvjMns4Xdg7-13" vertex="1">
          <mxGeometry y="210" width="270" height="30" as="geometry" />
        </mxCell>
        <mxCell id="6WkABTExDSvjMns4Xdg7-23" value="+ hostParty(gamemode_id: string): None " style="text;strokeColor=none;fillColor=none;align=left;verticalAlign=middle;spacingLeft=4;spacingRight=4;overflow=hidden;points=[[0,0.5],[1,0.5]];portConstraint=eastwest;rotatable=0;whiteSpace=wrap;html=1;" parent="6WkABTExDSvjMns4Xdg7-13" vertex="1">
          <mxGeometry y="240" width="270" height="30" as="geometry" />
        </mxCell>
        <mxCell id="6WkABTExDSvjMns4Xdg7-24" value="&lt;div&gt;+ respondInvitation(username: string): bool&lt;/div&gt;" style="text;strokeColor=none;fillColor=none;align=left;verticalAlign=middle;spacingLeft=4;spacingRight=4;overflow=hidden;points=[[0,0.5],[1,0.5]];portConstraint=eastwest;rotatable=0;whiteSpace=wrap;html=1;" parent="6WkABTExDSvjMns4Xdg7-13" vertex="1">
          <mxGeometry y="270" width="270" height="30" as="geometry" />
        </mxCell>
        <mxCell id="hWC3U5BVMSghRzzayUws-18" value="+ joinParty(game_id: integer): None" style="text;strokeColor=none;fillColor=none;align=left;verticalAlign=middle;spacingLeft=4;spacingRight=4;overflow=hidden;points=[[0,0.5],[1,0.5]];portConstraint=eastwest;rotatable=0;whiteSpace=wrap;html=1;" vertex="1" parent="6WkABTExDSvjMns4Xdg7-13">
          <mxGeometry y="300" width="270" height="30" as="geometry" />
        </mxCell>
        <mxCell id="hWC3U5BVMSghRzzayUws-59" style="edgeStyle=orthogonalEdgeStyle;rounded=0;orthogonalLoop=1;jettySize=auto;html=1;entryX=0.5;entryY=0;entryDx=0;entryDy=0;endArrow=diamondThin;endFill=0;endSize=18;" edge="1" parent="1" source="6WkABTExDSvjMns4Xdg7-27" target="6WkABTExDSvjMns4Xdg7-38">
          <mxGeometry relative="1" as="geometry" />
        </mxCell>
        <mxCell id="6WkABTExDSvjMns4Xdg7-27" value="Bet" style="swimlane;fontStyle=0;childLayout=stackLayout;horizontal=1;startSize=30;horizontalStack=0;resizeParent=1;resizeParentMax=0;resizeLast=0;collapsible=1;marginBottom=0;whiteSpace=wrap;html=1;fillColor=#b0e3e6;strokeColor=#0e8088;" parent="1" vertex="1">
          <mxGeometry x="610" y="-70" width="270" height="240" as="geometry" />
        </mxCell>
        <mxCell id="6WkABTExDSvjMns4Xdg7-30" value="- levelname: string" style="text;strokeColor=none;fillColor=none;align=left;verticalAlign=middle;spacingLeft=4;spacingRight=4;overflow=hidden;points=[[0,0.5],[1,0.5]];portConstraint=eastwest;rotatable=0;whiteSpace=wrap;html=1;" parent="6WkABTExDSvjMns4Xdg7-27" vertex="1">
          <mxGeometry y="30" width="270" height="30" as="geometry" />
        </mxCell>
        <mxCell id="6WkABTExDSvjMns4Xdg7-4" value="- currencyType: bool " style="text;strokeColor=none;fillColor=none;align=left;verticalAlign=middle;spacingLeft=4;spacingRight=4;overflow=hidden;points=[[0,0.5],[1,0.5]];portConstraint=eastwest;rotatable=0;whiteSpace=wrap;html=1;" parent="6WkABTExDSvjMns4Xdg7-27" vertex="1">
          <mxGeometry y="60" width="270" height="30" as="geometry" />
        </mxCell>
        <mxCell id="6WkABTExDSvjMns4Xdg7-28" value="- Ammount: integer" style="text;strokeColor=none;fillColor=none;align=left;verticalAlign=middle;spacingLeft=4;spacingRight=4;overflow=hidden;points=[[0,0.5],[1,0.5]];portConstraint=eastwest;rotatable=0;whiteSpace=wrap;html=1;" parent="6WkABTExDSvjMns4Xdg7-27" vertex="1">
          <mxGeometry y="90" width="270" height="30" as="geometry" />
        </mxCell>
        <mxCell id="6WkABTExDSvjMns4Xdg7-33" value="" style="endArrow=none;html=1;rounded=0;entryX=1;entryY=0;entryDx=0;entryDy=0;entryPerimeter=0;exitX=-0.001;exitY=-0.002;exitDx=0;exitDy=0;exitPerimeter=0;" parent="6WkABTExDSvjMns4Xdg7-27" source="6WkABTExDSvjMns4Xdg7-34" target="6WkABTExDSvjMns4Xdg7-34" edge="1">
          <mxGeometry width="50" height="50" relative="1" as="geometry">
            <mxPoint x="-80" y="200" as="sourcePoint" />
            <mxPoint x="-30" y="150" as="targetPoint" />
          </mxGeometry>
        </mxCell>
        <mxCell id="6WkABTExDSvjMns4Xdg7-34" value="+ selectBet: string | int" style="text;strokeColor=none;fillColor=none;align=left;verticalAlign=middle;spacingLeft=4;spacingRight=4;overflow=hidden;points=[[0,0.5],[1,0.5]];portConstraint=eastwest;rotatable=0;whiteSpace=wrap;html=1;" parent="6WkABTExDSvjMns4Xdg7-27" vertex="1">
          <mxGeometry y="120" width="270" height="30" as="geometry" />
        </mxCell>
        <mxCell id="6WkABTExDSvjMns4Xdg7-35" value="+ getCoin(currencyType: bool, ammount: integer): bool" style="text;strokeColor=none;fillColor=none;align=left;verticalAlign=middle;spacingLeft=4;spacingRight=4;overflow=hidden;points=[[0,0.5],[1,0.5]];portConstraint=eastwest;rotatable=0;whiteSpace=wrap;html=1;" parent="6WkABTExDSvjMns4Xdg7-27" vertex="1">
          <mxGeometry y="150" width="270" height="30" as="geometry" />
        </mxCell>
        <mxCell id="6WkABTExDSvjMns4Xdg7-36" value="+ cashBet(username: string, ammount: integer, players: integer): bool" style="text;strokeColor=none;fillColor=none;align=left;verticalAlign=middle;spacingLeft=4;spacingRight=4;overflow=hidden;points=[[0,0.5],[1,0.5]];portConstraint=eastwest;rotatable=0;whiteSpace=wrap;html=1;" parent="6WkABTExDSvjMns4Xdg7-27" vertex="1">
          <mxGeometry y="180" width="270" height="30" as="geometry" />
        </mxCell>
        <mxCell id="6WkABTExDSvjMns4Xdg7-37" value="+ sendStore(username: string): None" style="text;strokeColor=none;fillColor=none;align=left;verticalAlign=middle;spacingLeft=4;spacingRight=4;overflow=hidden;points=[[0,0.5],[1,0.5]];portConstraint=eastwest;rotatable=0;whiteSpace=wrap;html=1;" parent="6WkABTExDSvjMns4Xdg7-27" vertex="1">
          <mxGeometry y="210" width="270" height="30" as="geometry" />
        </mxCell>
        <mxCell id="6WkABTExDSvjMns4Xdg7-38" value="Table" style="swimlane;fontStyle=0;childLayout=stackLayout;horizontal=1;startSize=30;horizontalStack=0;resizeParent=1;resizeParentMax=0;resizeLast=0;collapsible=1;marginBottom=0;whiteSpace=wrap;html=1;fillColor=#b0e3e6;strokeColor=#0e8088;" parent="1" vertex="1">
          <mxGeometry x="610" y="280" width="270" height="300" as="geometry" />
        </mxCell>
        <mxCell id="6WkABTExDSvjMns4Xdg7-39" value="- id: integer" style="text;strokeColor=none;fillColor=none;align=left;verticalAlign=middle;spacingLeft=4;spacingRight=4;overflow=hidden;points=[[0,0.5],[1,0.5]];portConstraint=eastwest;rotatable=0;whiteSpace=wrap;html=1;" parent="6WkABTExDSvjMns4Xdg7-38" vertex="1">
          <mxGeometry y="30" width="270" height="30" as="geometry" />
        </mxCell>
        <mxCell id="6WkABTExDSvjMns4Xdg7-42" value="- host: integer" style="text;strokeColor=none;fillColor=none;align=left;verticalAlign=middle;spacingLeft=4;spacingRight=4;overflow=hidden;points=[[0,0.5],[1,0.5]];portConstraint=eastwest;rotatable=0;whiteSpace=wrap;html=1;" parent="6WkABTExDSvjMns4Xdg7-38" vertex="1">
          <mxGeometry y="60" width="270" height="30" as="geometry" />
        </mxCell>
        <mxCell id="6WkABTExDSvjMns4Xdg7-48" value="- players: list of user_id" style="text;strokeColor=none;fillColor=none;align=left;verticalAlign=middle;spacingLeft=4;spacingRight=4;overflow=hidden;points=[[0,0.5],[1,0.5]];portConstraint=eastwest;rotatable=0;whiteSpace=wrap;html=1;" parent="6WkABTExDSvjMns4Xdg7-38" vertex="1">
          <mxGeometry y="90" width="270" height="30" as="geometry" />
        </mxCell>
        <mxCell id="6WkABTExDSvjMns4Xdg7-43" value="" style="endArrow=none;html=1;rounded=0;entryX=1;entryY=0;entryDx=0;entryDy=0;entryPerimeter=0;exitX=-0.001;exitY=-0.002;exitDx=0;exitDy=0;exitPerimeter=0;" parent="6WkABTExDSvjMns4Xdg7-38" source="6WkABTExDSvjMns4Xdg7-44" target="6WkABTExDSvjMns4Xdg7-44" edge="1">
          <mxGeometry width="50" height="50" relative="1" as="geometry">
            <mxPoint x="-80" y="200" as="sourcePoint" />
            <mxPoint x="-30" y="150" as="targetPoint" />
          </mxGeometry>
        </mxCell>
        <mxCell id="6WkABTExDSvjMns4Xdg7-46" value="- winner: integer" style="text;strokeColor=none;fillColor=none;align=left;verticalAlign=middle;spacingLeft=4;spacingRight=4;overflow=hidden;points=[[0,0.5],[1,0.5]];portConstraint=eastwest;rotatable=0;whiteSpace=wrap;html=1;" parent="6WkABTExDSvjMns4Xdg7-38" vertex="1">
          <mxGeometry y="120" width="270" height="30" as="geometry" />
        </mxCell>
        <mxCell id="6WkABTExDSvjMns4Xdg7-49" value="- draw: bool" style="text;strokeColor=none;fillColor=none;align=left;verticalAlign=middle;spacingLeft=4;spacingRight=4;overflow=hidden;points=[[0,0.5],[1,0.5]];portConstraint=eastwest;rotatable=0;whiteSpace=wrap;html=1;" parent="6WkABTExDSvjMns4Xdg7-38" vertex="1">
          <mxGeometry y="150" width="270" height="30" as="geometry" />
        </mxCell>
        <mxCell id="6WkABTExDSvjMns4Xdg7-44" value="+ selectWinner: bool" style="text;strokeColor=none;fillColor=none;align=left;verticalAlign=middle;spacingLeft=4;spacingRight=4;overflow=hidden;points=[[0,0.5],[1,0.5]];portConstraint=eastwest;rotatable=0;whiteSpace=wrap;html=1;" parent="6WkABTExDSvjMns4Xdg7-38" vertex="1">
          <mxGeometry y="180" width="270" height="30" as="geometry" />
        </mxCell>
        <mxCell id="6WkABTExDSvjMns4Xdg7-50" value="+ winCondition(username: string): bool " style="text;strokeColor=none;fillColor=none;align=left;verticalAlign=middle;spacingLeft=4;spacingRight=4;overflow=hidden;points=[[0,0.5],[1,0.5]];portConstraint=eastwest;rotatable=0;whiteSpace=wrap;html=1;" parent="6WkABTExDSvjMns4Xdg7-38" vertex="1">
          <mxGeometry y="210" width="270" height="30" as="geometry" />
        </mxCell>
        <mxCell id="6WkABTExDSvjMns4Xdg7-51" value="+ leaveGame(username: string): None" style="text;strokeColor=none;fillColor=none;align=left;verticalAlign=middle;spacingLeft=4;spacingRight=4;overflow=hidden;points=[[0,0.5],[1,0.5]];portConstraint=eastwest;rotatable=0;whiteSpace=wrap;html=1;" parent="6WkABTExDSvjMns4Xdg7-38" vertex="1">
          <mxGeometry y="240" width="270" height="30" as="geometry" />
        </mxCell>
        <mxCell id="6WkABTExDSvjMns4Xdg7-52" value="+ surrender(username: string): bool" style="text;strokeColor=none;fillColor=none;align=left;verticalAlign=middle;spacingLeft=4;spacingRight=4;overflow=hidden;points=[[0,0.5],[1,0.5]];portConstraint=eastwest;rotatable=0;whiteSpace=wrap;html=1;" parent="6WkABTExDSvjMns4Xdg7-38" vertex="1">
          <mxGeometry y="270" width="270" height="30" as="geometry" />
        </mxCell>
        <mxCell id="hWC3U5BVMSghRzzayUws-1" value="Scoreboard" style="swimlane;fontStyle=0;childLayout=stackLayout;horizontal=1;startSize=30;horizontalStack=0;resizeParent=1;resizeParentMax=0;resizeLast=0;collapsible=1;marginBottom=0;whiteSpace=wrap;html=1;fillColor=#b0e3e6;strokeColor=#0e8088;" vertex="1" parent="1">
          <mxGeometry x="-1009.9999999999999" y="-70" width="270" height="300" as="geometry" />
        </mxCell>
        <mxCell id="hWC3U5BVMSghRzzayUws-2" value="- username: string" style="text;strokeColor=none;fillColor=none;align=left;verticalAlign=middle;spacingLeft=4;spacingRight=4;overflow=hidden;points=[[0,0.5],[1,0.5]];portConstraint=eastwest;rotatable=0;whiteSpace=wrap;html=1;" vertex="1" parent="hWC3U5BVMSghRzzayUws-1">
          <mxGeometry y="30" width="270" height="30" as="geometry" />
        </mxCell>
        <mxCell id="hWC3U5BVMSghRzzayUws-3" value="- matchPlayers: string" style="text;strokeColor=none;fillColor=none;align=left;verticalAlign=middle;spacingLeft=4;spacingRight=4;overflow=hidden;points=[[0,0.5],[1,0.5]];portConstraint=eastwest;rotatable=0;whiteSpace=wrap;html=1;" vertex="1" parent="hWC3U5BVMSghRzzayUws-1">
          <mxGeometry y="60" width="270" height="30" as="geometry" />
        </mxCell>
        <mxCell id="hWC3U5BVMSghRzzayUws-10" value="- win: bool" style="text;strokeColor=none;fillColor=none;align=left;verticalAlign=middle;spacingLeft=4;spacingRight=4;overflow=hidden;points=[[0,0.5],[1,0.5]];portConstraint=eastwest;rotatable=0;whiteSpace=wrap;html=1;" vertex="1" parent="hWC3U5BVMSghRzzayUws-1">
          <mxGeometry y="90" width="270" height="30" as="geometry" />
        </mxCell>
        <mxCell id="hWC3U5BVMSghRzzayUws-12" value="- matchDate: Date" style="text;strokeColor=none;fillColor=none;align=left;verticalAlign=middle;spacingLeft=4;spacingRight=4;overflow=hidden;points=[[0,0.5],[1,0.5]];portConstraint=eastwest;rotatable=0;whiteSpace=wrap;html=1;" vertex="1" parent="hWC3U5BVMSghRzzayUws-1">
          <mxGeometry y="120" width="270" height="30" as="geometry" />
        </mxCell>
        <mxCell id="hWC3U5BVMSghRzzayUws-13" value="- game: string" style="text;strokeColor=none;fillColor=none;align=left;verticalAlign=middle;spacingLeft=4;spacingRight=4;overflow=hidden;points=[[0,0.5],[1,0.5]];portConstraint=eastwest;rotatable=0;whiteSpace=wrap;html=1;" vertex="1" parent="hWC3U5BVMSghRzzayUws-1">
          <mxGeometry y="150" width="270" height="30" as="geometry" />
        </mxCell>
        <mxCell id="hWC3U5BVMSghRzzayUws-14" value="- gamemode: string" style="text;strokeColor=none;fillColor=none;align=left;verticalAlign=middle;spacingLeft=4;spacingRight=4;overflow=hidden;points=[[0,0.5],[1,0.5]];portConstraint=eastwest;rotatable=0;whiteSpace=wrap;html=1;" vertex="1" parent="hWC3U5BVMSghRzzayUws-1">
          <mxGeometry y="180" width="270" height="30" as="geometry" />
        </mxCell>
        <mxCell id="hWC3U5BVMSghRzzayUws-4" value="&lt;div&gt;+ getMatch: integer&lt;/div&gt;" style="text;strokeColor=none;fillColor=none;align=left;verticalAlign=middle;spacingLeft=4;spacingRight=4;overflow=hidden;points=[[0,0.5],[1,0.5]];portConstraint=eastwest;rotatable=0;whiteSpace=wrap;html=1;" vertex="1" parent="hWC3U5BVMSghRzzayUws-1">
          <mxGeometry y="210" width="270" height="30" as="geometry" />
        </mxCell>
        <mxCell id="hWC3U5BVMSghRzzayUws-6" value="+ sendRematchRequest: bool" style="text;strokeColor=none;fillColor=none;align=left;verticalAlign=middle;spacingLeft=4;spacingRight=4;overflow=hidden;points=[[0,0.5],[1,0.5]];portConstraint=eastwest;rotatable=0;whiteSpace=wrap;html=1;" vertex="1" parent="hWC3U5BVMSghRzzayUws-1">
          <mxGeometry y="240" width="270" height="30" as="geometry" />
        </mxCell>
        <mxCell id="hWC3U5BVMSghRzzayUws-7" value="+ sendFriendRequest: bool" style="text;strokeColor=none;fillColor=none;align=left;verticalAlign=middle;spacingLeft=4;spacingRight=4;overflow=hidden;points=[[0,0.5],[1,0.5]];portConstraint=eastwest;rotatable=0;whiteSpace=wrap;html=1;" vertex="1" parent="hWC3U5BVMSghRzzayUws-1">
          <mxGeometry y="270" width="270" height="30" as="geometry" />
        </mxCell>
        <mxCell id="hWC3U5BVMSghRzzayUws-15" value="" style="endArrow=none;html=1;rounded=0;entryX=-0.009;entryY=0;entryDx=0;entryDy=0;entryPerimeter=0;" edge="1" parent="hWC3U5BVMSghRzzayUws-1" target="hWC3U5BVMSghRzzayUws-4">
          <mxGeometry width="50" height="50" relative="1" as="geometry">
            <mxPoint x="275" y="210" as="sourcePoint" />
            <mxPoint x="5" y="210" as="targetPoint" />
            <Array as="points">
              <mxPoint x="225" y="210" />
            </Array>
          </mxGeometry>
        </mxCell>
        <mxCell id="hWC3U5BVMSghRzzayUws-46" style="edgeStyle=orthogonalEdgeStyle;rounded=0;orthogonalLoop=1;jettySize=auto;html=1;entryX=0.007;entryY=-0.133;entryDx=0;entryDy=0;entryPerimeter=0;endArrow=none;endFill=0;" edge="1" parent="1" source="CtRNFP9WD__vj1TVYb57-37" target="CtRNFP9WD__vj1TVYb57-19">
          <mxGeometry relative="1" as="geometry" />
        </mxCell>
        <mxCell id="hWC3U5BVMSghRzzayUws-56" style="edgeStyle=orthogonalEdgeStyle;rounded=0;orthogonalLoop=1;jettySize=auto;html=1;entryX=0.463;entryY=0.944;entryDx=0;entryDy=0;entryPerimeter=0;endArrow=none;endFill=0;" edge="1" parent="1" source="CtRNFP9WD__vj1TVYb57-37" target="hWC3U5BVMSghRzzayUws-22">
          <mxGeometry relative="1" as="geometry">
            <Array as="points">
              <mxPoint x="-75" y="370" />
              <mxPoint x="-75" y="370" />
            </Array>
          </mxGeometry>
        </mxCell>
        <mxCell id="CtRNFP9WD__vj1TVYb57-37" value="Store" style="swimlane;fontStyle=0;childLayout=stackLayout;horizontal=1;startSize=30;horizontalStack=0;resizeParent=1;resizeParentMax=0;resizeLast=0;collapsible=1;marginBottom=0;whiteSpace=wrap;html=1;fillColor=#b0e3e6;strokeColor=#0e8088;" parent="1" vertex="1">
          <mxGeometry x="-210" y="440" width="270" height="390" as="geometry" />
        </mxCell>
        <mxCell id="CtRNFP9WD__vj1TVYb57-38" value="- user_id: integer" style="text;strokeColor=none;fillColor=none;align=left;verticalAlign=middle;spacingLeft=4;spacingRight=4;overflow=hidden;points=[[0,0.5],[1,0.5]];portConstraint=eastwest;rotatable=0;whiteSpace=wrap;html=1;" parent="CtRNFP9WD__vj1TVYb57-37" vertex="1">
          <mxGeometry y="30" width="270" height="30" as="geometry" />
        </mxCell>
        <mxCell id="CtRNFP9WD__vj1TVYb57-39" value="&lt;div&gt;- items:list of Item&lt;/div&gt;" style="text;strokeColor=none;fillColor=none;align=left;verticalAlign=middle;spacingLeft=4;spacingRight=4;overflow=hidden;points=[[0,0.5],[1,0.5]];portConstraint=eastwest;rotatable=0;whiteSpace=wrap;html=1;" parent="CtRNFP9WD__vj1TVYb57-37" vertex="1">
          <mxGeometry y="60" width="270" height="30" as="geometry" />
        </mxCell>
        <mxCell id="CtRNFP9WD__vj1TVYb57-44" value="- packs: list of Pack" style="text;strokeColor=none;fillColor=none;align=left;verticalAlign=middle;spacingLeft=4;spacingRight=4;overflow=hidden;points=[[0,0.5],[1,0.5]];portConstraint=eastwest;rotatable=0;whiteSpace=wrap;html=1;" parent="CtRNFP9WD__vj1TVYb57-37" vertex="1">
          <mxGeometry y="90" width="270" height="30" as="geometry" />
        </mxCell>
        <mxCell id="CtRNFP9WD__vj1TVYb57-40" value="&lt;div&gt;+ buyItem(item_id: integer): bool&lt;br&gt;&lt;/div&gt;" style="text;strokeColor=none;fillColor=none;align=left;verticalAlign=middle;spacingLeft=4;spacingRight=4;overflow=hidden;points=[[0,0.5],[1,0.5]];portConstraint=eastwest;rotatable=0;whiteSpace=wrap;html=1;" parent="CtRNFP9WD__vj1TVYb57-37" vertex="1">
          <mxGeometry y="120" width="270" height="30" as="geometry" />
        </mxCell>
        <mxCell id="CtRNFP9WD__vj1TVYb57-41" value="" style="endArrow=none;html=1;rounded=0;entryX=1;entryY=0;entryDx=0;entryDy=0;entryPerimeter=0;exitX=-0.001;exitY=-0.002;exitDx=0;exitDy=0;exitPerimeter=0;" parent="CtRNFP9WD__vj1TVYb57-37" source="CtRNFP9WD__vj1TVYb57-40" target="CtRNFP9WD__vj1TVYb57-40" edge="1">
          <mxGeometry width="50" height="50" relative="1" as="geometry">
            <mxPoint x="-80" y="200" as="sourcePoint" />
            <mxPoint x="-30" y="150" as="targetPoint" />
          </mxGeometry>
        </mxCell>
        <mxCell id="CtRNFP9WD__vj1TVYb57-53" value="+ get_Item: integer" style="text;strokeColor=none;fillColor=none;align=left;verticalAlign=middle;spacingLeft=4;spacingRight=4;overflow=hidden;points=[[0,0.5],[1,0.5]];portConstraint=eastwest;rotatable=0;whiteSpace=wrap;html=1;" parent="CtRNFP9WD__vj1TVYb57-37" vertex="1">
          <mxGeometry y="150" width="270" height="30" as="geometry" />
        </mxCell>
        <mxCell id="CtRNFP9WD__vj1TVYb57-42" value="+ addItem(item_id: integer): bool" style="text;strokeColor=none;fillColor=none;align=left;verticalAlign=middle;spacingLeft=4;spacingRight=4;overflow=hidden;points=[[0,0.5],[1,0.5]];portConstraint=eastwest;rotatable=0;whiteSpace=wrap;html=1;" parent="CtRNFP9WD__vj1TVYb57-37" vertex="1">
          <mxGeometry y="180" width="270" height="30" as="geometry" />
        </mxCell>
        <mxCell id="CtRNFP9WD__vj1TVYb57-43" value="+ removeItem(item_id: integer): bool" style="text;strokeColor=none;fillColor=none;align=left;verticalAlign=middle;spacingLeft=4;spacingRight=4;overflow=hidden;points=[[0,0.5],[1,0.5]];portConstraint=eastwest;rotatable=0;whiteSpace=wrap;html=1;" parent="CtRNFP9WD__vj1TVYb57-37" vertex="1">
          <mxGeometry y="210" width="270" height="30" as="geometry" />
        </mxCell>
        <mxCell id="CtRNFP9WD__vj1TVYb57-46" value="+ addPack(pack_id: integer): bool" style="text;strokeColor=none;fillColor=none;align=left;verticalAlign=middle;spacingLeft=4;spacingRight=4;overflow=hidden;points=[[0,0.5],[1,0.5]];portConstraint=eastwest;rotatable=0;whiteSpace=wrap;html=1;" parent="CtRNFP9WD__vj1TVYb57-37" vertex="1">
          <mxGeometry y="240" width="270" height="30" as="geometry" />
        </mxCell>
        <mxCell id="6WkABTExDSvjMns4Xdg7-12" value="+ removePack(pack_id: integer): bool" style="text;strokeColor=none;fillColor=none;align=left;verticalAlign=middle;spacingLeft=4;spacingRight=4;overflow=hidden;points=[[0,0.5],[1,0.5]];portConstraint=eastwest;rotatable=0;whiteSpace=wrap;html=1;" parent="CtRNFP9WD__vj1TVYb57-37" vertex="1">
          <mxGeometry y="270" width="270" height="30" as="geometry" />
        </mxCell>
        <mxCell id="CtRNFP9WD__vj1TVYb57-47" value="+ removePack(pack_id: integer): bool" style="text;strokeColor=none;fillColor=none;align=left;verticalAlign=middle;spacingLeft=4;spacingRight=4;overflow=hidden;points=[[0,0.5],[1,0.5]];portConstraint=eastwest;rotatable=0;whiteSpace=wrap;html=1;" parent="CtRNFP9WD__vj1TVYb57-37" vertex="1">
          <mxGeometry y="300" width="270" height="30" as="geometry" />
        </mxCell>
        <mxCell id="CtRNFP9WD__vj1TVYb57-48" value="+ addDiscount(Item_Id: integer, discount: integer, percentage: bool, time: datetime): bool " style="text;strokeColor=none;fillColor=none;align=left;verticalAlign=middle;spacingLeft=4;spacingRight=4;overflow=hidden;points=[[0,0.5],[1,0.5]];portConstraint=eastwest;rotatable=0;whiteSpace=wrap;html=1;" parent="CtRNFP9WD__vj1TVYb57-37" vertex="1">
          <mxGeometry y="330" width="270" height="30" as="geometry" />
        </mxCell>
        <mxCell id="CtRNFP9WD__vj1TVYb57-49" value="+ removeDiscount(Item_id): bool" style="text;strokeColor=none;fillColor=none;align=left;verticalAlign=middle;spacingLeft=4;spacingRight=4;overflow=hidden;points=[[0,0.5],[1,0.5]];portConstraint=eastwest;rotatable=0;whiteSpace=wrap;html=1;" parent="CtRNFP9WD__vj1TVYb57-37" vertex="1">
          <mxGeometry y="360" width="270" height="30" as="geometry" />
        </mxCell>
        <mxCell id="hWC3U5BVMSghRzzayUws-47" style="edgeStyle=orthogonalEdgeStyle;rounded=0;orthogonalLoop=1;jettySize=auto;html=1;endArrow=none;endFill=0;" edge="1" parent="1" source="CtRNFP9WD__vj1TVYb57-6">
          <mxGeometry relative="1" as="geometry">
            <mxPoint x="-340" y="74" as="targetPoint" />
          </mxGeometry>
        </mxCell>
        <mxCell id="hWC3U5BVMSghRzzayUws-50" style="edgeStyle=orthogonalEdgeStyle;rounded=0;orthogonalLoop=1;jettySize=auto;html=1;entryX=0.279;entryY=0.989;entryDx=0;entryDy=0;entryPerimeter=0;endArrow=none;endFill=0;" edge="1" parent="1" source="CtRNFP9WD__vj1TVYb57-56" target="CtRNFP9WD__vj1TVYb57-17">
          <mxGeometry relative="1" as="geometry" />
        </mxCell>
        <mxCell id="hWC3U5BVMSghRzzayUws-51" style="edgeStyle=orthogonalEdgeStyle;rounded=0;orthogonalLoop=1;jettySize=auto;html=1;endArrow=none;endFill=0;" edge="1" parent="1" source="hWC3U5BVMSghRzzayUws-3" target="6WkABTExDSvjMns4Xdg7-15">
          <mxGeometry relative="1" as="geometry" />
        </mxCell>
        <mxCell id="hWC3U5BVMSghRzzayUws-53" style="edgeStyle=orthogonalEdgeStyle;rounded=0;orthogonalLoop=1;jettySize=auto;html=1;endArrow=none;endFill=0;" edge="1" parent="1" source="6WkABTExDSvjMns4Xdg7-2">
          <mxGeometry relative="1" as="geometry">
            <mxPoint x="610" y="-25" as="targetPoint" />
          </mxGeometry>
        </mxCell>
        <mxCell id="hWC3U5BVMSghRzzayUws-60" style="edgeStyle=orthogonalEdgeStyle;rounded=0;orthogonalLoop=1;jettySize=auto;html=1;entryX=0;entryY=0.5;entryDx=0;entryDy=0;endArrow=none;endFill=0;" edge="1" parent="1" source="L0IoAVmVPzkokYVJZ-Xs-2" target="6WkABTExDSvjMns4Xdg7-5">
          <mxGeometry relative="1" as="geometry" />
        </mxCell>
        <mxCell id="hWC3U5BVMSghRzzayUws-61" value="&lt;div&gt;1:1&lt;/div&gt;" style="text;html=1;align=center;verticalAlign=middle;resizable=0;points=[];autosize=1;strokeColor=none;fillColor=none;" vertex="1" parent="1">
          <mxGeometry x="-240" y="50" width="40" height="30" as="geometry" />
        </mxCell>
        <mxCell id="hWC3U5BVMSghRzzayUws-62" value="&lt;div&gt;1:1&lt;/div&gt;" style="text;html=1;align=center;verticalAlign=middle;resizable=0;points=[];autosize=1;strokeColor=none;fillColor=none;" vertex="1" parent="1">
          <mxGeometry x="-340" y="50" width="40" height="30" as="geometry" />
        </mxCell>
        <mxCell id="hWC3U5BVMSghRzzayUws-63" value="&lt;div&gt;1:1&lt;/div&gt;" style="text;html=1;align=center;verticalAlign=middle;resizable=0;points=[];autosize=1;strokeColor=none;fillColor=none;" vertex="1" parent="1">
          <mxGeometry x="-650" y="-20" width="40" height="30" as="geometry" />
        </mxCell>
        <mxCell id="hWC3U5BVMSghRzzayUws-64" value="&lt;div&gt;1:1&lt;/div&gt;" style="text;html=1;align=center;verticalAlign=middle;resizable=0;points=[];autosize=1;strokeColor=none;fillColor=none;" vertex="1" parent="1">
          <mxGeometry x="-740" y="-20" width="40" height="30" as="geometry" />
        </mxCell>
        <mxCell id="hWC3U5BVMSghRzzayUws-66" value="Has" style="text;html=1;align=center;verticalAlign=middle;resizable=0;points=[];autosize=1;strokeColor=none;fillColor=none;" vertex="1" parent="1">
          <mxGeometry x="-290" y="80" width="40" height="30" as="geometry" />
        </mxCell>
        <mxCell id="hWC3U5BVMSghRzzayUws-67" value="Contains" style="text;html=1;align=center;verticalAlign=middle;resizable=0;points=[];autosize=1;strokeColor=none;fillColor=none;" vertex="1" parent="1">
          <mxGeometry x="-710" y="5" width="70" height="30" as="geometry" />
        </mxCell>
        <mxCell id="hWC3U5BVMSghRzzayUws-68" value="Has" style="text;html=1;align=center;verticalAlign=middle;resizable=0;points=[];autosize=1;strokeColor=none;fillColor=none;" vertex="1" parent="1">
          <mxGeometry x="-360" y="320" width="40" height="30" as="geometry" />
        </mxCell>
        <mxCell id="hWC3U5BVMSghRzzayUws-69" value="&lt;div&gt;1:1&lt;/div&gt;" style="text;html=1;align=center;verticalAlign=middle;resizable=0;points=[];autosize=1;strokeColor=none;fillColor=none;" vertex="1" parent="1">
          <mxGeometry x="-240" y="290" width="40" height="30" as="geometry" />
        </mxCell>
        <mxCell id="hWC3U5BVMSghRzzayUws-70" value="&lt;div&gt;1:1&lt;/div&gt;" style="text;html=1;align=center;verticalAlign=middle;resizable=0;points=[];autosize=1;strokeColor=none;fillColor=none;" vertex="1" parent="1">
          <mxGeometry x="-430" y="415" width="40" height="30" as="geometry" />
        </mxCell>
        <mxCell id="hWC3U5BVMSghRzzayUws-71" value="Has access" style="text;html=1;align=center;verticalAlign=middle;resizable=0;points=[];autosize=1;strokeColor=none;fillColor=none;" vertex="1" parent="1">
          <mxGeometry x="-70" y="385" width="90" height="30" as="geometry" />
        </mxCell>
        <mxCell id="hWC3U5BVMSghRzzayUws-72" value="&lt;div&gt;1:1&lt;/div&gt;" style="text;html=1;align=center;verticalAlign=middle;resizable=0;points=[];autosize=1;strokeColor=none;fillColor=none;" vertex="1" parent="1">
          <mxGeometry x="-110" y="415" width="40" height="30" as="geometry" />
        </mxCell>
        <mxCell id="hWC3U5BVMSghRzzayUws-73" value="0:N" style="text;html=1;align=center;verticalAlign=middle;resizable=0;points=[];autosize=1;strokeColor=none;fillColor=none;" vertex="1" parent="1">
          <mxGeometry x="-110" y="360" width="40" height="30" as="geometry" />
        </mxCell>
        <mxCell id="hWC3U5BVMSghRzzayUws-74" value="&lt;div&gt;1:1&lt;/div&gt;" style="text;html=1;align=center;verticalAlign=middle;resizable=0;points=[];autosize=1;strokeColor=none;fillColor=none;" vertex="1" parent="1">
          <mxGeometry x="-110" y="830" width="40" height="30" as="geometry" />
        </mxCell>
        <mxCell id="hWC3U5BVMSghRzzayUws-76" value="0:N" style="text;html=1;align=center;verticalAlign=middle;resizable=0;points=[];autosize=1;strokeColor=none;fillColor=none;" vertex="1" parent="1">
          <mxGeometry x="-110" y="890" width="40" height="30" as="geometry" />
        </mxCell>
        <mxCell id="hWC3U5BVMSghRzzayUws-77" value="Contains" style="text;html=1;align=center;verticalAlign=middle;resizable=0;points=[];autosize=1;strokeColor=none;fillColor=none;" vertex="1" parent="1">
          <mxGeometry x="-70" y="860" width="70" height="30" as="geometry" />
        </mxCell>
        <mxCell id="hWC3U5BVMSghRzzayUws-78" value="Has" style="text;html=1;align=center;verticalAlign=middle;resizable=0;points=[];autosize=1;strokeColor=none;fillColor=none;" vertex="1" parent="1">
          <mxGeometry x="315" y="920" width="40" height="30" as="geometry" />
        </mxCell>
        <mxCell id="hWC3U5BVMSghRzzayUws-79" value="0:N" style="text;html=1;align=center;verticalAlign=middle;resizable=0;points=[];autosize=1;strokeColor=none;fillColor=none;" vertex="1" parent="1">
          <mxGeometry x="60" y="1000" width="40" height="30" as="geometry" />
        </mxCell>
        <mxCell id="hWC3U5BVMSghRzzayUws-80" value="0:N" style="text;html=1;align=center;verticalAlign=middle;resizable=0;points=[];autosize=1;strokeColor=none;fillColor=none;" vertex="1" parent="1">
          <mxGeometry x="290" y="820" width="40" height="30" as="geometry" />
        </mxCell>
        <mxCell id="hWC3U5BVMSghRzzayUws-81" value="0:N" style="text;html=1;align=center;verticalAlign=middle;resizable=0;points=[];autosize=1;strokeColor=none;fillColor=none;" vertex="1" parent="1">
          <mxGeometry x="320" y="520" width="40" height="30" as="geometry" />
        </mxCell>
        <mxCell id="hWC3U5BVMSghRzzayUws-82" value="&lt;div&gt;0:1&lt;/div&gt;" style="text;html=1;align=center;verticalAlign=middle;resizable=0;points=[];autosize=1;strokeColor=none;fillColor=none;" vertex="1" parent="1">
          <mxGeometry x="320" y="460" width="40" height="30" as="geometry" />
        </mxCell>
        <mxCell id="hWC3U5BVMSghRzzayUws-83" value="Contains" style="text;html=1;align=center;verticalAlign=middle;resizable=0;points=[];autosize=1;strokeColor=none;fillColor=none;" vertex="1" parent="1">
          <mxGeometry x="370" y="490" width="70" height="30" as="geometry" />
        </mxCell>
        <mxCell id="hWC3U5BVMSghRzzayUws-84" value="Has" style="text;html=1;align=center;verticalAlign=middle;resizable=0;points=[];autosize=1;strokeColor=none;fillColor=none;" vertex="1" parent="1">
          <mxGeometry x="125" y="640" width="40" height="30" as="geometry" />
        </mxCell>
        <mxCell id="hWC3U5BVMSghRzzayUws-85" value="1:N" style="text;html=1;align=center;verticalAlign=middle;resizable=0;points=[];autosize=1;strokeColor=none;fillColor=none;" vertex="1" parent="1">
          <mxGeometry x="180" y="610" width="40" height="30" as="geometry" />
        </mxCell>
        <mxCell id="hWC3U5BVMSghRzzayUws-86" value="1:1" style="text;html=1;align=center;verticalAlign=middle;resizable=0;points=[];autosize=1;strokeColor=none;fillColor=none;" vertex="1" parent="1">
          <mxGeometry x="60" y="610" width="40" height="30" as="geometry" />
        </mxCell>
        <mxCell id="hWC3U5BVMSghRzzayUws-87" value="Has" style="text;html=1;align=center;verticalAlign=middle;resizable=0;points=[];autosize=1;strokeColor=none;fillColor=none;" vertex="1" parent="1">
          <mxGeometry x="200" y="190" width="40" height="30" as="geometry" />
        </mxCell>
        <mxCell id="hWC3U5BVMSghRzzayUws-88" value="&lt;div&gt;1:1&lt;/div&gt;" style="text;html=1;align=center;verticalAlign=middle;resizable=0;points=[];autosize=1;strokeColor=none;fillColor=none;" vertex="1" parent="1">
          <mxGeometry x="70" y="200" width="40" height="30" as="geometry" />
        </mxCell>
        <mxCell id="hWC3U5BVMSghRzzayUws-89" value="&lt;div&gt;1:1&lt;/div&gt;" style="text;html=1;align=center;verticalAlign=middle;resizable=0;points=[];autosize=1;strokeColor=none;fillColor=none;" vertex="1" parent="1">
          <mxGeometry x="355" y="250" width="40" height="30" as="geometry" />
        </mxCell>
        <mxCell id="hWC3U5BVMSghRzzayUws-90" value="N:M" style="text;html=1;align=center;verticalAlign=middle;resizable=0;points=[];autosize=1;strokeColor=none;fillColor=none;" vertex="1" parent="1">
          <mxGeometry x="65" y="80" width="50" height="30" as="geometry" />
        </mxCell>
        <mxCell id="hWC3U5BVMSghRzzayUws-91" value="N:M" style="text;html=1;align=center;verticalAlign=middle;resizable=0;points=[];autosize=1;strokeColor=none;fillColor=none;" vertex="1" parent="1">
          <mxGeometry x="160" y="10" width="50" height="30" as="geometry" />
        </mxCell>
        <mxCell id="hWC3U5BVMSghRzzayUws-92" value="Has access" style="text;html=1;align=center;verticalAlign=middle;resizable=0;points=[];autosize=1;strokeColor=none;fillColor=none;" vertex="1" parent="1">
          <mxGeometry x="100" y="110" width="90" height="30" as="geometry" />
        </mxCell>
        <mxCell id="hWC3U5BVMSghRzzayUws-93" value="1:1" style="text;html=1;align=center;verticalAlign=middle;resizable=0;points=[];autosize=1;strokeColor=none;fillColor=none;" vertex="1" parent="1">
          <mxGeometry x="480" y="-50" width="40" height="30" as="geometry" />
        </mxCell>
        <mxCell id="hWC3U5BVMSghRzzayUws-94" value="&lt;div&gt;0:1&lt;/div&gt;" style="text;html=1;align=center;verticalAlign=middle;resizable=0;points=[];autosize=1;strokeColor=none;fillColor=none;" vertex="1" parent="1">
          <mxGeometry x="570" y="-50" width="40" height="30" as="geometry" />
        </mxCell>
        <mxCell id="hWC3U5BVMSghRzzayUws-96" style="rounded=0;orthogonalLoop=1;jettySize=auto;html=1;entryX=0.25;entryY=0;entryDx=0;entryDy=0;endArrow=diamondThin;endFill=0;endSize=18;" edge="1" parent="1" source="6WkABTExDSvjMns4Xdg7-26" target="6WkABTExDSvjMns4Xdg7-38">
          <mxGeometry relative="1" as="geometry" />
        </mxCell>
      </root>
    </mxGraphModel>
  </diagram>
  <diagram id="cvkeCfU04Wy2gcLMfBKJ" name="Página-2">
    <mxGraphModel dx="1362" dy="806" grid="1" gridSize="10" guides="1" tooltips="1" connect="1" arrows="1" fold="1" page="1" pageScale="1" pageWidth="827" pageHeight="1169" math="0" shadow="0">
      <root>
        <mxCell id="0" />
        <mxCell id="1" parent="0" />
        <mxCell id="_bRGHAQMUEtHkbXLoTyP-1" value="User" style="swimlane;fontStyle=0;childLayout=stackLayout;horizontal=1;startSize=30;horizontalStack=0;resizeParent=1;resizeParentMax=0;resizeLast=0;collapsible=1;marginBottom=0;whiteSpace=wrap;html=1;fillColor=#b0e3e6;strokeColor=#0e8088;" vertex="1" parent="1">
          <mxGeometry x="80" y="80" width="270" height="180" as="geometry" />
        </mxCell>
        <mxCell id="_bRGHAQMUEtHkbXLoTyP-2" value="- username: string" style="text;strokeColor=none;fillColor=none;align=left;verticalAlign=middle;spacingLeft=4;spacingRight=4;overflow=hidden;points=[[0,0.5],[1,0.5]];portConstraint=eastwest;rotatable=0;whiteSpace=wrap;html=1;" vertex="1" parent="_bRGHAQMUEtHkbXLoTyP-1">
          <mxGeometry y="30" width="270" height="30" as="geometry" />
        </mxCell>
        <mxCell id="_bRGHAQMUEtHkbXLoTyP-3" value="- name: string" style="text;strokeColor=none;fillColor=none;align=left;verticalAlign=middle;spacingLeft=4;spacingRight=4;overflow=hidden;points=[[0,0.5],[1,0.5]];portConstraint=eastwest;rotatable=0;whiteSpace=wrap;html=1;" vertex="1" parent="_bRGHAQMUEtHkbXLoTyP-1">
          <mxGeometry y="60" width="270" height="30" as="geometry" />
        </mxCell>
        <mxCell id="_bRGHAQMUEtHkbXLoTyP-4" value="- password: string" style="text;strokeColor=none;fillColor=none;align=left;verticalAlign=middle;spacingLeft=4;spacingRight=4;overflow=hidden;points=[[0,0.5],[1,0.5]];portConstraint=eastwest;rotatable=0;whiteSpace=wrap;html=1;" vertex="1" parent="_bRGHAQMUEtHkbXLoTyP-1">
          <mxGeometry y="90" width="270" height="30" as="geometry" />
        </mxCell>
        <mxCell id="_bRGHAQMUEtHkbXLoTyP-5" value="- bankAccount: string" style="text;strokeColor=none;fillColor=none;align=left;verticalAlign=middle;spacingLeft=4;spacingRight=4;overflow=hidden;points=[[0,0.5],[1,0.5]];portConstraint=eastwest;rotatable=0;whiteSpace=wrap;html=1;" vertex="1" parent="_bRGHAQMUEtHkbXLoTyP-1">
          <mxGeometry y="120" width="270" height="30" as="geometry" />
        </mxCell>
        <mxCell id="_bRGHAQMUEtHkbXLoTyP-6" value="- email: string" style="text;strokeColor=none;fillColor=none;align=left;verticalAlign=middle;spacingLeft=4;spacingRight=4;overflow=hidden;points=[[0,0.5],[1,0.5]];portConstraint=eastwest;rotatable=0;whiteSpace=wrap;html=1;" vertex="1" parent="_bRGHAQMUEtHkbXLoTyP-1">
          <mxGeometry y="150" width="270" height="30" as="geometry" />
        </mxCell>
        <mxCell id="luojbLIqRSYsS7xCjRHi-1" value="Inventory" style="swimlane;fontStyle=0;childLayout=stackLayout;horizontal=1;startSize=30;horizontalStack=0;resizeParent=1;resizeParentMax=0;resizeLast=0;collapsible=1;marginBottom=0;whiteSpace=wrap;html=1;fillColor=#b0e3e6;strokeColor=#0e8088;" vertex="1" parent="1">
          <mxGeometry x="380" y="80" width="270" height="90" as="geometry" />
        </mxCell>
        <mxCell id="luojbLIqRSYsS7xCjRHi-2" value="- username: string" style="text;strokeColor=none;fillColor=none;align=left;verticalAlign=middle;spacingLeft=4;spacingRight=4;overflow=hidden;points=[[0,0.5],[1,0.5]];portConstraint=eastwest;rotatable=0;whiteSpace=wrap;html=1;" vertex="1" parent="luojbLIqRSYsS7xCjRHi-1">
          <mxGeometry y="30" width="270" height="30" as="geometry" />
        </mxCell>
        <mxCell id="luojbLIqRSYsS7xCjRHi-3" value="- items:list of Item" style="text;strokeColor=none;fillColor=none;align=left;verticalAlign=middle;spacingLeft=4;spacingRight=4;overflow=hidden;points=[[0,0.5],[1,0.5]];portConstraint=eastwest;rotatable=0;whiteSpace=wrap;html=1;" vertex="1" parent="luojbLIqRSYsS7xCjRHi-1">
          <mxGeometry y="60" width="270" height="30" as="geometry" />
        </mxCell>
        <mxCell id="luojbLIqRSYsS7xCjRHi-5" value="" style="endArrow=none;html=1;rounded=0;entryX=1;entryY=0;entryDx=0;entryDy=0;entryPerimeter=0;exitX=-0.001;exitY=-0.002;exitDx=0;exitDy=0;exitPerimeter=0;" edge="1" parent="luojbLIqRSYsS7xCjRHi-1">
          <mxGeometry width="50" height="50" relative="1" as="geometry">
            <mxPoint x="-0.2699999999999818" y="89.94000000000005" as="sourcePoint" />
            <mxPoint x="270" y="90" as="targetPoint" />
          </mxGeometry>
        </mxCell>
        <mxCell id="1jvXjX4rWNXPgBQzD1g3-1" value="Item" style="swimlane;fontStyle=0;childLayout=stackLayout;horizontal=1;startSize=30;horizontalStack=0;resizeParent=1;resizeParentMax=0;resizeLast=0;collapsible=1;marginBottom=0;whiteSpace=wrap;html=1;fillColor=#b0e3e6;strokeColor=#0e8088;" vertex="1" parent="1">
          <mxGeometry x="690" y="80" width="270" height="180" as="geometry" />
        </mxCell>
        <mxCell id="1jvXjX4rWNXPgBQzD1g3-2" value="- id: integer" style="text;strokeColor=none;fillColor=none;align=left;verticalAlign=middle;spacingLeft=4;spacingRight=4;overflow=hidden;points=[[0,0.5],[1,0.5]];portConstraint=eastwest;rotatable=0;whiteSpace=wrap;html=1;" vertex="1" parent="1jvXjX4rWNXPgBQzD1g3-1">
          <mxGeometry y="30" width="270" height="30" as="geometry" />
        </mxCell>
        <mxCell id="1jvXjX4rWNXPgBQzD1g3-3" value="- user_id: integer" style="text;strokeColor=none;fillColor=none;align=left;verticalAlign=middle;spacingLeft=4;spacingRight=4;overflow=hidden;points=[[0,0.5],[1,0.5]];portConstraint=eastwest;rotatable=0;whiteSpace=wrap;html=1;" vertex="1" parent="1jvXjX4rWNXPgBQzD1g3-1">
          <mxGeometry y="60" width="270" height="30" as="geometry" />
        </mxCell>
        <mxCell id="1jvXjX4rWNXPgBQzD1g3-4" value="- price: integer" style="text;strokeColor=none;fillColor=none;align=left;verticalAlign=middle;spacingLeft=4;spacingRight=4;overflow=hidden;points=[[0,0.5],[1,0.5]];portConstraint=eastwest;rotatable=0;whiteSpace=wrap;html=1;" vertex="1" parent="1jvXjX4rWNXPgBQzD1g3-1">
          <mxGeometry y="90" width="270" height="30" as="geometry" />
        </mxCell>
        <mxCell id="1jvXjX4rWNXPgBQzD1g3-5" value="- discount: bool" style="text;strokeColor=none;fillColor=none;align=left;verticalAlign=middle;spacingLeft=4;spacingRight=4;overflow=hidden;points=[[0,0.5],[1,0.5]];portConstraint=eastwest;rotatable=0;whiteSpace=wrap;html=1;" vertex="1" parent="1jvXjX4rWNXPgBQzD1g3-1">
          <mxGeometry y="120" width="270" height="30" as="geometry" />
        </mxCell>
        <mxCell id="1jvXjX4rWNXPgBQzD1g3-6" value="- tier: integer" style="text;strokeColor=none;fillColor=none;align=left;verticalAlign=middle;spacingLeft=4;spacingRight=4;overflow=hidden;points=[[0,0.5],[1,0.5]];portConstraint=eastwest;rotatable=0;whiteSpace=wrap;html=1;" vertex="1" parent="1jvXjX4rWNXPgBQzD1g3-1">
          <mxGeometry y="150" width="270" height="30" as="geometry" />
        </mxCell>
        <mxCell id="1jvXjX4rWNXPgBQzD1g3-7" value="" style="endArrow=none;html=1;rounded=0;entryX=1;entryY=0;entryDx=0;entryDy=0;entryPerimeter=0;exitX=-0.001;exitY=-0.002;exitDx=0;exitDy=0;exitPerimeter=0;" edge="1" parent="1jvXjX4rWNXPgBQzD1g3-1">
          <mxGeometry width="50" height="50" relative="1" as="geometry">
            <mxPoint x="-0.2699999999999818" y="179.94000000000005" as="sourcePoint" />
            <mxPoint x="270" y="180" as="targetPoint" />
          </mxGeometry>
        </mxCell>
        <mxCell id="Z4EktJ-wXQTSUVAzvXxD-1" value="Bank" style="swimlane;fontStyle=0;childLayout=stackLayout;horizontal=1;startSize=30;horizontalStack=0;resizeParent=1;resizeParentMax=0;resizeLast=0;collapsible=1;marginBottom=0;whiteSpace=wrap;html=1;fillColor=#b0e3e6;strokeColor=#0e8088;" vertex="1" parent="1">
          <mxGeometry x="40" y="430" width="270" height="120" as="geometry" />
        </mxCell>
        <mxCell id="Z4EktJ-wXQTSUVAzvXxD-2" value="- user_id: integer" style="text;strokeColor=none;fillColor=none;align=left;verticalAlign=middle;spacingLeft=4;spacingRight=4;overflow=hidden;points=[[0,0.5],[1,0.5]];portConstraint=eastwest;rotatable=0;whiteSpace=wrap;html=1;" vertex="1" parent="Z4EktJ-wXQTSUVAzvXxD-1">
          <mxGeometry y="30" width="270" height="30" as="geometry" />
        </mxCell>
        <mxCell id="Z4EktJ-wXQTSUVAzvXxD-3" value="&lt;div&gt;- lowcoin: integer&lt;/div&gt;" style="text;strokeColor=none;fillColor=none;align=left;verticalAlign=middle;spacingLeft=4;spacingRight=4;overflow=hidden;points=[[0,0.5],[1,0.5]];portConstraint=eastwest;rotatable=0;whiteSpace=wrap;html=1;" vertex="1" parent="Z4EktJ-wXQTSUVAzvXxD-1">
          <mxGeometry y="60" width="270" height="30" as="geometry" />
        </mxCell>
        <mxCell id="Z4EktJ-wXQTSUVAzvXxD-4" value="- highcoin: integer" style="text;strokeColor=none;fillColor=none;align=left;verticalAlign=middle;spacingLeft=4;spacingRight=4;overflow=hidden;points=[[0,0.5],[1,0.5]];portConstraint=eastwest;rotatable=0;whiteSpace=wrap;html=1;" vertex="1" parent="Z4EktJ-wXQTSUVAzvXxD-1">
          <mxGeometry y="90" width="270" height="30" as="geometry" />
        </mxCell>
        <mxCell id="Z4EktJ-wXQTSUVAzvXxD-6" value="" style="endArrow=none;html=1;rounded=0;entryX=1;entryY=0;entryDx=0;entryDy=0;entryPerimeter=0;exitX=-0.001;exitY=-0.002;exitDx=0;exitDy=0;exitPerimeter=0;" edge="1" parent="Z4EktJ-wXQTSUVAzvXxD-1">
          <mxGeometry width="50" height="50" relative="1" as="geometry">
            <mxPoint x="-0.2699999999999818" y="119.94000000000005" as="sourcePoint" />
            <mxPoint x="270" y="120" as="targetPoint" />
          </mxGeometry>
        </mxCell>
        <mxCell id="Z4EktJ-wXQTSUVAzvXxD-9" value="Store" style="swimlane;fontStyle=0;childLayout=stackLayout;horizontal=1;startSize=30;horizontalStack=0;resizeParent=1;resizeParentMax=0;resizeLast=0;collapsible=1;marginBottom=0;whiteSpace=wrap;html=1;fillColor=#b0e3e6;strokeColor=#0e8088;" vertex="1" parent="1">
          <mxGeometry x="370" y="430" width="270" height="120" as="geometry" />
        </mxCell>
        <mxCell id="Z4EktJ-wXQTSUVAzvXxD-10" value="- user_id: integer" style="text;strokeColor=none;fillColor=none;align=left;verticalAlign=middle;spacingLeft=4;spacingRight=4;overflow=hidden;points=[[0,0.5],[1,0.5]];portConstraint=eastwest;rotatable=0;whiteSpace=wrap;html=1;" vertex="1" parent="Z4EktJ-wXQTSUVAzvXxD-9">
          <mxGeometry y="30" width="270" height="30" as="geometry" />
        </mxCell>
        <mxCell id="Z4EktJ-wXQTSUVAzvXxD-11" value="&lt;div&gt;- items:list of Item&lt;/div&gt;" style="text;strokeColor=none;fillColor=none;align=left;verticalAlign=middle;spacingLeft=4;spacingRight=4;overflow=hidden;points=[[0,0.5],[1,0.5]];portConstraint=eastwest;rotatable=0;whiteSpace=wrap;html=1;" vertex="1" parent="Z4EktJ-wXQTSUVAzvXxD-9">
          <mxGeometry y="60" width="270" height="30" as="geometry" />
        </mxCell>
        <mxCell id="Z4EktJ-wXQTSUVAzvXxD-12" value="- packs: list of Pack" style="text;strokeColor=none;fillColor=none;align=left;verticalAlign=middle;spacingLeft=4;spacingRight=4;overflow=hidden;points=[[0,0.5],[1,0.5]];portConstraint=eastwest;rotatable=0;whiteSpace=wrap;html=1;" vertex="1" parent="Z4EktJ-wXQTSUVAzvXxD-9">
          <mxGeometry y="90" width="270" height="30" as="geometry" />
        </mxCell>
        <mxCell id="Z4EktJ-wXQTSUVAzvXxD-14" value="" style="endArrow=none;html=1;rounded=0;entryX=1;entryY=0;entryDx=0;entryDy=0;entryPerimeter=0;exitX=-0.001;exitY=-0.002;exitDx=0;exitDy=0;exitPerimeter=0;" edge="1" parent="Z4EktJ-wXQTSUVAzvXxD-9">
          <mxGeometry width="50" height="50" relative="1" as="geometry">
            <mxPoint x="-0.2699999999999818" y="119.94000000000005" as="sourcePoint" />
            <mxPoint x="270" y="120" as="targetPoint" />
          </mxGeometry>
        </mxCell>
        <mxCell id="Z4EktJ-wXQTSUVAzvXxD-23" value="Pack" style="swimlane;fontStyle=0;childLayout=stackLayout;horizontal=1;startSize=30;horizontalStack=0;resizeParent=1;resizeParentMax=0;resizeLast=0;collapsible=1;marginBottom=0;whiteSpace=wrap;html=1;fillColor=#b0e3e6;strokeColor=#0e8088;" vertex="1" parent="1">
          <mxGeometry x="710" y="480" width="270" height="180" as="geometry" />
        </mxCell>
        <mxCell id="Z4EktJ-wXQTSUVAzvXxD-24" value="- id: integer" style="text;strokeColor=none;fillColor=none;align=left;verticalAlign=middle;spacingLeft=4;spacingRight=4;overflow=hidden;points=[[0,0.5],[1,0.5]];portConstraint=eastwest;rotatable=0;whiteSpace=wrap;html=1;" vertex="1" parent="Z4EktJ-wXQTSUVAzvXxD-23">
          <mxGeometry y="30" width="270" height="30" as="geometry" />
        </mxCell>
        <mxCell id="Z4EktJ-wXQTSUVAzvXxD-25" value="- items: integer" style="text;strokeColor=none;fillColor=none;align=left;verticalAlign=middle;spacingLeft=4;spacingRight=4;overflow=hidden;points=[[0,0.5],[1,0.5]];portConstraint=eastwest;rotatable=0;whiteSpace=wrap;html=1;" vertex="1" parent="Z4EktJ-wXQTSUVAzvXxD-23">
          <mxGeometry y="60" width="270" height="30" as="geometry" />
        </mxCell>
        <mxCell id="Z4EktJ-wXQTSUVAzvXxD-26" value="- lowcoin: integer" style="text;strokeColor=none;fillColor=none;align=left;verticalAlign=middle;spacingLeft=4;spacingRight=4;overflow=hidden;points=[[0,0.5],[1,0.5]];portConstraint=eastwest;rotatable=0;whiteSpace=wrap;html=1;" vertex="1" parent="Z4EktJ-wXQTSUVAzvXxD-23">
          <mxGeometry y="90" width="270" height="30" as="geometry" />
        </mxCell>
        <mxCell id="Z4EktJ-wXQTSUVAzvXxD-27" value="- highcoin: integer" style="text;strokeColor=none;fillColor=none;align=left;verticalAlign=middle;spacingLeft=4;spacingRight=4;overflow=hidden;points=[[0,0.5],[1,0.5]];portConstraint=eastwest;rotatable=0;whiteSpace=wrap;html=1;" vertex="1" parent="Z4EktJ-wXQTSUVAzvXxD-23">
          <mxGeometry y="120" width="270" height="30" as="geometry" />
        </mxCell>
        <mxCell id="Z4EktJ-wXQTSUVAzvXxD-28" value="- price: int" style="text;strokeColor=none;fillColor=none;align=left;verticalAlign=middle;spacingLeft=4;spacingRight=4;overflow=hidden;points=[[0,0.5],[1,0.5]];portConstraint=eastwest;rotatable=0;whiteSpace=wrap;html=1;" vertex="1" parent="Z4EktJ-wXQTSUVAzvXxD-23">
          <mxGeometry y="150" width="270" height="30" as="geometry" />
        </mxCell>
        <mxCell id="Z4EktJ-wXQTSUVAzvXxD-30" value="" style="endArrow=none;html=1;rounded=0;entryX=1;entryY=0;entryDx=0;entryDy=0;entryPerimeter=0;exitX=-0.001;exitY=-0.002;exitDx=0;exitDy=0;exitPerimeter=0;" edge="1" parent="Z4EktJ-wXQTSUVAzvXxD-23">
          <mxGeometry width="50" height="50" relative="1" as="geometry">
            <mxPoint x="-0.2699999999999818" y="179.94000000000005" as="sourcePoint" />
            <mxPoint x="270" y="180" as="targetPoint" />
          </mxGeometry>
        </mxCell>
        <mxCell id="Z4EktJ-wXQTSUVAzvXxD-33" value="Gamemode" style="swimlane;fontStyle=0;childLayout=stackLayout;horizontal=1;startSize=30;horizontalStack=0;resizeParent=1;resizeParentMax=0;resizeLast=0;collapsible=1;marginBottom=0;whiteSpace=wrap;html=1;fillColor=#b0e3e6;strokeColor=#0e8088;" vertex="1" parent="1">
          <mxGeometry x="1040" y="140" width="270" height="150" as="geometry" />
        </mxCell>
        <mxCell id="Z4EktJ-wXQTSUVAzvXxD-34" value="- id: integer" style="text;strokeColor=none;fillColor=none;align=left;verticalAlign=middle;spacingLeft=4;spacingRight=4;overflow=hidden;points=[[0,0.5],[1,0.5]];portConstraint=eastwest;rotatable=0;whiteSpace=wrap;html=1;" vertex="1" parent="Z4EktJ-wXQTSUVAzvXxD-33">
          <mxGeometry y="30" width="270" height="30" as="geometry" />
        </mxCell>
        <mxCell id="Z4EktJ-wXQTSUVAzvXxD-35" value="- name: string" style="text;strokeColor=none;fillColor=none;align=left;verticalAlign=middle;spacingLeft=4;spacingRight=4;overflow=hidden;points=[[0,0.5],[1,0.5]];portConstraint=eastwest;rotatable=0;whiteSpace=wrap;html=1;" vertex="1" parent="Z4EktJ-wXQTSUVAzvXxD-33">
          <mxGeometry y="60" width="270" height="30" as="geometry" />
        </mxCell>
        <mxCell id="Z4EktJ-wXQTSUVAzvXxD-36" value="- bet: bool" style="text;strokeColor=none;fillColor=none;align=left;verticalAlign=middle;spacingLeft=4;spacingRight=4;overflow=hidden;points=[[0,0.5],[1,0.5]];portConstraint=eastwest;rotatable=0;whiteSpace=wrap;html=1;" vertex="1" parent="Z4EktJ-wXQTSUVAzvXxD-33">
          <mxGeometry y="90" width="270" height="30" as="geometry" />
        </mxCell>
        <mxCell id="Z4EktJ-wXQTSUVAzvXxD-37" value="- host: bool" style="text;strokeColor=none;fillColor=none;align=left;verticalAlign=middle;spacingLeft=4;spacingRight=4;overflow=hidden;points=[[0,0.5],[1,0.5]];portConstraint=eastwest;rotatable=0;whiteSpace=wrap;html=1;" vertex="1" parent="Z4EktJ-wXQTSUVAzvXxD-33">
          <mxGeometry y="120" width="270" height="30" as="geometry" />
        </mxCell>
        <mxCell id="Z4EktJ-wXQTSUVAzvXxD-38" value="" style="endArrow=none;html=1;rounded=0;entryX=1;entryY=0;entryDx=0;entryDy=0;entryPerimeter=0;exitX=-0.001;exitY=-0.002;exitDx=0;exitDy=0;exitPerimeter=0;" edge="1" parent="Z4EktJ-wXQTSUVAzvXxD-33">
          <mxGeometry width="50" height="50" relative="1" as="geometry">
            <mxPoint x="-0.2699999999999818" y="149.94000000000005" as="sourcePoint" />
            <mxPoint x="270" y="150" as="targetPoint" />
          </mxGeometry>
        </mxCell>
        <mxCell id="Z4EktJ-wXQTSUVAzvXxD-41" value="Social" style="swimlane;fontStyle=0;childLayout=stackLayout;horizontal=1;startSize=30;horizontalStack=0;resizeParent=1;resizeParentMax=0;resizeLast=0;collapsible=1;marginBottom=0;whiteSpace=wrap;html=1;fillColor=#b0e3e6;strokeColor=#0e8088;" vertex="1" parent="1">
          <mxGeometry x="1040" y="450" width="270" height="120" as="geometry" />
        </mxCell>
        <mxCell id="Z4EktJ-wXQTSUVAzvXxD-42" value="- user_id: integer" style="text;strokeColor=none;fillColor=none;align=left;verticalAlign=middle;spacingLeft=4;spacingRight=4;overflow=hidden;points=[[0,0.5],[1,0.5]];portConstraint=eastwest;rotatable=0;whiteSpace=wrap;html=1;" vertex="1" parent="Z4EktJ-wXQTSUVAzvXxD-41">
          <mxGeometry y="30" width="270" height="30" as="geometry" />
        </mxCell>
        <mxCell id="Z4EktJ-wXQTSUVAzvXxD-43" value="- friends: list of friend" style="text;strokeColor=none;fillColor=none;align=left;verticalAlign=middle;spacingLeft=4;spacingRight=4;overflow=hidden;points=[[0,0.5],[1,0.5]];portConstraint=eastwest;rotatable=0;whiteSpace=wrap;html=1;" vertex="1" parent="Z4EktJ-wXQTSUVAzvXxD-41">
          <mxGeometry y="60" width="270" height="30" as="geometry" />
        </mxCell>
        <mxCell id="Z4EktJ-wXQTSUVAzvXxD-44" value="- inbox: list of messages" style="text;strokeColor=none;fillColor=none;align=left;verticalAlign=middle;spacingLeft=4;spacingRight=4;overflow=hidden;points=[[0,0.5],[1,0.5]];portConstraint=eastwest;rotatable=0;whiteSpace=wrap;html=1;" vertex="1" parent="Z4EktJ-wXQTSUVAzvXxD-41">
          <mxGeometry y="90" width="270" height="30" as="geometry" />
        </mxCell>
        <mxCell id="Z4EktJ-wXQTSUVAzvXxD-46" value="" style="endArrow=none;html=1;rounded=0;entryX=1;entryY=0;entryDx=0;entryDy=0;entryPerimeter=0;exitX=-0.001;exitY=-0.002;exitDx=0;exitDy=0;exitPerimeter=0;" edge="1" parent="Z4EktJ-wXQTSUVAzvXxD-41">
          <mxGeometry width="50" height="50" relative="1" as="geometry">
            <mxPoint x="-0.2699999999999818" y="119.94000000000005" as="sourcePoint" />
            <mxPoint x="270" y="120" as="targetPoint" />
          </mxGeometry>
        </mxCell>
        <mxCell id="Z4EktJ-wXQTSUVAzvXxD-51" value="Bet" style="swimlane;fontStyle=0;childLayout=stackLayout;horizontal=1;startSize=30;horizontalStack=0;resizeParent=1;resizeParentMax=0;resizeLast=0;collapsible=1;marginBottom=0;whiteSpace=wrap;html=1;fillColor=#b0e3e6;strokeColor=#0e8088;" vertex="1" parent="1">
          <mxGeometry x="1360" y="140" width="270" height="120" as="geometry" />
        </mxCell>
        <mxCell id="Z4EktJ-wXQTSUVAzvXxD-52" value="- levelname: string" style="text;strokeColor=none;fillColor=none;align=left;verticalAlign=middle;spacingLeft=4;spacingRight=4;overflow=hidden;points=[[0,0.5],[1,0.5]];portConstraint=eastwest;rotatable=0;whiteSpace=wrap;html=1;" vertex="1" parent="Z4EktJ-wXQTSUVAzvXxD-51">
          <mxGeometry y="30" width="270" height="30" as="geometry" />
        </mxCell>
        <mxCell id="Z4EktJ-wXQTSUVAzvXxD-53" value="- currencyType: bool " style="text;strokeColor=none;fillColor=none;align=left;verticalAlign=middle;spacingLeft=4;spacingRight=4;overflow=hidden;points=[[0,0.5],[1,0.5]];portConstraint=eastwest;rotatable=0;whiteSpace=wrap;html=1;" vertex="1" parent="Z4EktJ-wXQTSUVAzvXxD-51">
          <mxGeometry y="60" width="270" height="30" as="geometry" />
        </mxCell>
        <mxCell id="Z4EktJ-wXQTSUVAzvXxD-54" value="- Ammount: integer" style="text;strokeColor=none;fillColor=none;align=left;verticalAlign=middle;spacingLeft=4;spacingRight=4;overflow=hidden;points=[[0,0.5],[1,0.5]];portConstraint=eastwest;rotatable=0;whiteSpace=wrap;html=1;" vertex="1" parent="Z4EktJ-wXQTSUVAzvXxD-51">
          <mxGeometry y="90" width="270" height="30" as="geometry" />
        </mxCell>
        <mxCell id="Z4EktJ-wXQTSUVAzvXxD-55" value="" style="endArrow=none;html=1;rounded=0;entryX=1;entryY=0;entryDx=0;entryDy=0;entryPerimeter=0;exitX=-0.001;exitY=-0.002;exitDx=0;exitDy=0;exitPerimeter=0;" edge="1" parent="Z4EktJ-wXQTSUVAzvXxD-51">
          <mxGeometry width="50" height="50" relative="1" as="geometry">
            <mxPoint x="-0.2699999999999818" y="119.94000000000005" as="sourcePoint" />
            <mxPoint x="270" y="120" as="targetPoint" />
          </mxGeometry>
        </mxCell>
        <mxCell id="Z4EktJ-wXQTSUVAzvXxD-60" value="Game" style="swimlane;fontStyle=0;childLayout=stackLayout;horizontal=1;startSize=30;horizontalStack=0;resizeParent=1;resizeParentMax=0;resizeLast=0;collapsible=1;marginBottom=0;whiteSpace=wrap;html=1;fillColor=#b0e3e6;strokeColor=#0e8088;" vertex="1" parent="1">
          <mxGeometry x="1360" y="480" width="270" height="180" as="geometry" />
        </mxCell>
        <mxCell id="Z4EktJ-wXQTSUVAzvXxD-61" value="- id: integer" style="text;strokeColor=none;fillColor=none;align=left;verticalAlign=middle;spacingLeft=4;spacingRight=4;overflow=hidden;points=[[0,0.5],[1,0.5]];portConstraint=eastwest;rotatable=0;whiteSpace=wrap;html=1;" vertex="1" parent="Z4EktJ-wXQTSUVAzvXxD-60">
          <mxGeometry y="30" width="270" height="30" as="geometry" />
        </mxCell>
        <mxCell id="Z4EktJ-wXQTSUVAzvXxD-62" value="- host: integer" style="text;strokeColor=none;fillColor=none;align=left;verticalAlign=middle;spacingLeft=4;spacingRight=4;overflow=hidden;points=[[0,0.5],[1,0.5]];portConstraint=eastwest;rotatable=0;whiteSpace=wrap;html=1;" vertex="1" parent="Z4EktJ-wXQTSUVAzvXxD-60">
          <mxGeometry y="60" width="270" height="30" as="geometry" />
        </mxCell>
        <mxCell id="Z4EktJ-wXQTSUVAzvXxD-63" value="- players: list of user_id" style="text;strokeColor=none;fillColor=none;align=left;verticalAlign=middle;spacingLeft=4;spacingRight=4;overflow=hidden;points=[[0,0.5],[1,0.5]];portConstraint=eastwest;rotatable=0;whiteSpace=wrap;html=1;" vertex="1" parent="Z4EktJ-wXQTSUVAzvXxD-60">
          <mxGeometry y="90" width="270" height="30" as="geometry" />
        </mxCell>
        <mxCell id="Z4EktJ-wXQTSUVAzvXxD-64" value="" style="endArrow=none;html=1;rounded=0;entryX=1;entryY=0;entryDx=0;entryDy=0;entryPerimeter=0;exitX=-0.001;exitY=-0.002;exitDx=0;exitDy=0;exitPerimeter=0;" edge="1" parent="Z4EktJ-wXQTSUVAzvXxD-60">
          <mxGeometry width="50" height="50" relative="1" as="geometry">
            <mxPoint x="-0.2699999999999818" y="179.94000000000005" as="sourcePoint" />
            <mxPoint x="270" y="180" as="targetPoint" />
          </mxGeometry>
        </mxCell>
        <mxCell id="Z4EktJ-wXQTSUVAzvXxD-65" value="- winner: integer" style="text;strokeColor=none;fillColor=none;align=left;verticalAlign=middle;spacingLeft=4;spacingRight=4;overflow=hidden;points=[[0,0.5],[1,0.5]];portConstraint=eastwest;rotatable=0;whiteSpace=wrap;html=1;" vertex="1" parent="Z4EktJ-wXQTSUVAzvXxD-60">
          <mxGeometry y="120" width="270" height="30" as="geometry" />
        </mxCell>
        <mxCell id="Z4EktJ-wXQTSUVAzvXxD-66" value="- draw: bool" style="text;strokeColor=none;fillColor=none;align=left;verticalAlign=middle;spacingLeft=4;spacingRight=4;overflow=hidden;points=[[0,0.5],[1,0.5]];portConstraint=eastwest;rotatable=0;whiteSpace=wrap;html=1;" vertex="1" parent="Z4EktJ-wXQTSUVAzvXxD-60">
          <mxGeometry y="150" width="270" height="30" as="geometry" />
        </mxCell>
      </root>
    </mxGraphModel>
  </diagram>
</mxfile>
